  0
SECTION
  2
HEADER
  9
$ACADVER
  1
AC1009
  0
ENDSEC
  0
SECTION
  2
ENTITIES
  0
POLYLINE
  5
90
  8
Layer_0
  62
0
  66
1
  10
0
  20
0
  30
0
  0
VERTEX
  5
90
  8
Layer_0
  10
447.59998
  20
405.65036
  0
VERTEX
  5
91
  8
Layer_0
  10
447.59998
  20
493.90036
  0
SEQEND
  0
POLYLINE
  5
93
  8
Layer_0
  62
0
  66
1
  10
0
  20
0
  30
0
  0
VERTEX
  5
93
  8
Layer_0
  10
447.63806
  20
493.90036
  0
VERTEX
  5
94
  8
Layer_0
  10
447.62689
  20
493.92731
  0
VERTEX
  5
95
  8
Layer_0
  10
447.59998
  20
493.93848
  0
VERTEX
  5
96
  8
Layer_0
  10
447.57306
  20
493.92731
  0
VERTEX
  5
97
  8
Layer_0
  10
447.56189
  20
493.90036
  0
SEQEND
  0
POLYLINE
  5
99
  8
Layer_0
  62
0
  66
1
  10
0
  20
0
  30
0
  0
VERTEX
  5
99
  8
Layer_0
  10
447.56189
  20
405.65036
  0
VERTEX
  5
9a
  8
Layer_0
  10
447.57306
  20
405.62341
  0
VERTEX
  5
9b
  8
Layer_0
  10
447.59998
  20
405.61227
  0
VERTEX
  5
9c
  8
Layer_0
  10
447.62689
  20
405.62341
  0
VERTEX
  5
9d
  8
Layer_0
  10
447.63806
  20
405.65036
  0
SEQEND
  0
POLYLINE
  5
9f
  8
Layer_0
  62
0
  66
1
  10
0
  20
0
  30
0
  0
VERTEX
  5
9f
  8
Layer_0
  10
447.59998
  20
405.65036
  0
VERTEX
  5
a0
  8
Layer_0
  10
447.61804
  20
405.29251
  0
VERTEX
  5
a1
  8
Layer_0
  10
447.67108
  20
404.94501
  0
VERTEX
  5
a2
  8
Layer_0
  10
447.75732
  20
404.60959
  0
VERTEX
  5
a3
  8
Layer_0
  10
447.87506
  20
404.28802
  0
VERTEX
  5
a4
  8
Layer_0
  10
448.02246
  20
403.98209
  0
VERTEX
  5
a5
  8
Layer_0
  10
448.19775
  20
403.69354
  0
VERTEX
  5
a6
  8
Layer_0
  10
448.39923
  20
403.42407
  0
VERTEX
  5
a7
  8
Layer_0
  10
448.62512
  20
403.17554
  0
VERTEX
  5
a8
  8
Layer_0
  10
448.87366
  20
402.94965
  0
VERTEX
  5
a9
  8
Layer_0
  10
449.14313
  20
402.74811
  0
VERTEX
  5
aa
  8
Layer_0
  10
449.4317
  20
402.57281
  0
VERTEX
  5
ab
  8
Layer_0
  10
449.73767
  20
402.42542
  0
VERTEX
  5
ac
  8
Layer_0
  10
450.0592
  20
402.30774
  0
VERTEX
  5
ad
  8
Layer_0
  10
450.39459
  20
402.2215
  0
VERTEX
  5
ae
  8
Layer_0
  10
450.74207
  20
402.16846
  0
VERTEX
  5
af
  8
Layer_0
  10
451.09998
  20
402.15036
  0
SEQEND
  0
POLYLINE
  5
b1
  8
Layer_0
  62
0
  66
1
  10
0
  20
0
  30
0
  0
VERTEX
  5
b1
  8
Layer_0
  10
447.63806
  20
405.65036
  0
VERTEX
  5
b2
  8
Layer_0
  10
447.62689
  20
405.67731
  0
VERTEX
  5
b3
  8
Layer_0
  10
447.59998
  20
405.68845
  0
VERTEX
  5
b4
  8
Layer_0
  10
447.57306
  20
405.67731
  0
VERTEX
  5
b5
  8
Layer_0
  10
447.56189
  20
405.65036
  0
SEQEND
  0
POLYLINE
  5
b7
  8
Layer_0
  62
0
  66
1
  10
0
  20
0
  30
0
  0
VERTEX
  5
b7
  8
Layer_0
  10
451.09998
  20
402.11227
  0
VERTEX
  5
b8
  8
Layer_0
  10
451.12689
  20
402.12341
  0
VERTEX
  5
b9
  8
Layer_0
  10
451.13806
  20
402.15036
  0
VERTEX
  5
ba
  8
Layer_0
  10
451.12689
  20
402.17731
  0
VERTEX
  5
bb
  8
Layer_0
  10
451.09998
  20
402.18845
  0
SEQEND
  0
POLYLINE
  5
bd
  8
Layer_0
  62
0
  66
1
  10
0
  20
0
  30
0
  0
VERTEX
  5
bd
  8
Layer_0
  10
451.09998
  20
497.40036
  0
VERTEX
  5
be
  8
Layer_0
  10
450.74207
  20
497.38226
  0
VERTEX
  5
bf
  8
Layer_0
  10
450.39459
  20
497.32922
  0
VERTEX
  5
c0
  8
Layer_0
  10
450.0592
  20
497.24298
  0
VERTEX
  5
c1
  8
Layer_0
  10
449.73767
  20
497.12531
  0
VERTEX
  5
c2
  8
Layer_0
  10
449.4317
  20
496.97791
  0
VERTEX
  5
c3
  8
Layer_0
  10
449.14313
  20
496.80261
  0
VERTEX
  5
c4
  8
Layer_0
  10
448.87366
  20
496.60107
  0
VERTEX
  5
c5
  8
Layer_0
  10
448.62512
  20
496.37518
  0
VERTEX
  5
c6
  8
Layer_0
  10
448.39923
  20
496.12665
  0
VERTEX
  5
c7
  8
Layer_0
  10
448.19775
  20
495.85718
  0
VERTEX
  5
c8
  8
Layer_0
  10
448.02246
  20
495.56863
  0
VERTEX
  5
c9
  8
Layer_0
  10
447.87506
  20
495.2627
  0
VERTEX
  5
ca
  8
Layer_0
  10
447.75732
  20
494.94113
  0
VERTEX
  5
cb
  8
Layer_0
  10
447.67108
  20
494.60571
  0
VERTEX
  5
cc
  8
Layer_0
  10
447.61804
  20
494.25821
  0
VERTEX
  5
cd
  8
Layer_0
  10
447.59998
  20
493.90036
  0
SEQEND
  0
POLYLINE
  5
cf
  8
Layer_0
  62
0
  66
1
  10
0
  20
0
  30
0
  0
VERTEX
  5
cf
  8
Layer_0
  10
451.09998
  20
497.36224
  0
VERTEX
  5
d0
  8
Layer_0
  10
451.12689
  20
497.37341
  0
VERTEX
  5
d1
  8
Layer_0
  10
451.13806
  20
497.40036
  0
VERTEX
  5
d2
  8
Layer_0
  10
451.12689
  20
497.42731
  0
VERTEX
  5
d3
  8
Layer_0
  10
451.09998
  20
497.43848
  0
SEQEND
  0
POLYLINE
  5
d5
  8
Layer_0
  62
0
  66
1
  10
0
  20
0
  30
0
  0
VERTEX
  5
d5
  8
Layer_0
  10
447.56189
  20
493.90036
  0
VERTEX
  5
d6
  8
Layer_0
  10
447.57306
  20
493.87341
  0
VERTEX
  5
d7
  8
Layer_0
  10
447.59998
  20
493.86224
  0
VERTEX
  5
d8
  8
Layer_0
  10
447.62689
  20
493.87341
  0
VERTEX
  5
d9
  8
Layer_0
  10
447.63806
  20
493.90036
  0
SEQEND
  0
POLYLINE
  5
db
  8
Layer_0
  62
0
  66
1
  10
0
  20
0
  30
0
  0
VERTEX
  5
db
  8
Layer_0
  10
748.89996
  20
402.15036
  0
VERTEX
  5
dc
  8
Layer_0
  10
749.25781
  20
402.16846
  0
VERTEX
  5
dd
  8
Layer_0
  10
749.60535
  20
402.2215
  0
VERTEX
  5
de
  8
Layer_0
  10
749.94073
  20
402.30774
  0
VERTEX
  5
df
  8
Layer_0
  10
750.26233
  20
402.42542
  0
VERTEX
  5
e0
  8
Layer_0
  10
750.56824
  20
402.57281
  0
VERTEX
  5
e1
  8
Layer_0
  10
750.85681
  20
402.74811
  0
VERTEX
  5
e2
  8
Layer_0
  10
751.12628
  20
402.94965
  0
VERTEX
  5
e3
  8
Layer_0
  10
751.37482
  20
403.17554
  0
VERTEX
  5
e4
  8
Layer_0
  10
751.60071
  20
403.42407
  0
VERTEX
  5
e5
  8
Layer_0
  10
751.80219
  20
403.69354
  0
VERTEX
  5
e6
  8
Layer_0
  10
751.97748
  20
403.98209
  0
VERTEX
  5
e7
  8
Layer_0
  10
752.12488
  20
404.28802
  0
VERTEX
  5
e8
  8
Layer_0
  10
752.24255
  20
404.60959
  0
VERTEX
  5
e9
  8
Layer_0
  10
752.32886
  20
404.94501
  0
VERTEX
  5
ea
  8
Layer_0
  10
752.3819
  20
405.29251
  0
VERTEX
  5
eb
  8
Layer_0
  10
752.39996
  20
405.65036
  0
SEQEND
  0
POLYLINE
  5
ed
  8
Layer_0
  62
0
  66
1
  10
0
  20
0
  30
0
  0
VERTEX
  5
ed
  8
Layer_0
  10
752.43811
  20
405.65036
  0
VERTEX
  5
ee
  8
Layer_0
  10
752.42688
  20
405.67731
  0
VERTEX
  5
ef
  8
Layer_0
  10
752.39996
  20
405.68848
  0
VERTEX
  5
f0
  8
Layer_0
  10
752.37305
  20
405.67731
  0
VERTEX
  5
f1
  8
Layer_0
  10
752.36188
  20
405.65036
  0
SEQEND
  0
POLYLINE
  5
f3
  8
Layer_0
  62
0
  66
1
  10
0
  20
0
  30
0
  0
VERTEX
  5
f3
  8
Layer_0
  10
752.39996
  20
493.90036
  0
VERTEX
  5
f4
  8
Layer_0
  10
752.3819
  20
494.25821
  0
VERTEX
  5
f5
  8
Layer_0
  10
752.32886
  20
494.60571
  0
VERTEX
  5
f6
  8
Layer_0
  10
752.24255
  20
494.94113
  0
VERTEX
  5
f7
  8
Layer_0
  10
752.12488
  20
495.2627
  0
VERTEX
  5
f8
  8
Layer_0
  10
751.97748
  20
495.56863
  0
VERTEX
  5
f9
  8
Layer_0
  10
751.80219
  20
495.85718
  0
VERTEX
  5
fa
  8
Layer_0
  10
751.60071
  20
496.12665
  0
VERTEX
  5
fb
  8
Layer_0
  10
751.37482
  20
496.37518
  0
VERTEX
  5
fc
  8
Layer_0
  10
751.12628
  20
496.60107
  0
VERTEX
  5
fd
  8
Layer_0
  10
750.85681
  20
496.80261
  0
VERTEX
  5
fe
  8
Layer_0
  10
750.56824
  20
496.97791
  0
VERTEX
  5
ff
  8
Layer_0
  10
750.26233
  20
497.12531
  0
VERTEX
  5
100
  8
Layer_0
  10
749.94073
  20
497.24298
  0
VERTEX
  5
101
  8
Layer_0
  10
749.60535
  20
497.32922
  0
VERTEX
  5
102
  8
Layer_0
  10
749.25781
  20
497.38226
  0
VERTEX
  5
103
  8
Layer_0
  10
748.89996
  20
497.40036
  0
SEQEND
  0
POLYLINE
  5
105
  8
Layer_0
  62
0
  66
1
  10
0
  20
0
  30
0
  0
VERTEX
  5
105
  8
Layer_0
  10
752.36188
  20
493.90036
  0
VERTEX
  5
106
  8
Layer_0
  10
752.37305
  20
493.87341
  0
VERTEX
  5
107
  8
Layer_0
  10
752.39996
  20
493.86224
  0
VERTEX
  5
108
  8
Layer_0
  10
752.42694
  20
493.87341
  0
VERTEX
  5
109
  8
Layer_0
  10
752.43811
  20
493.90036
  0
SEQEND
  0
POLYLINE
  5
10b
  8
Layer_0
  62
0
  66
1
  10
0
  20
0
  30
0
  0
VERTEX
  5
10b
  8
Layer_0
  10
748.89996
  20
497.43848
  0
VERTEX
  5
10c
  8
Layer_0
  10
748.87305
  20
497.42731
  0
VERTEX
  5
10d
  8
Layer_0
  10
748.86188
  20
497.40036
  0
VERTEX
  5
10e
  8
Layer_0
  10
748.87299
  20
497.37341
  0
VERTEX
  5
10f
  8
Layer_0
  10
748.89996
  20
497.36224
  0
SEQEND
  0
POLYLINE
  5
111
  8
Layer_0
  62
0
  66
1
  10
0
  20
0
  30
0
  0
VERTEX
  5
111
  8
Layer_0
  10
451.09998
  20
497.40036
  0
VERTEX
  5
112
  8
Layer_0
  10
748.89996
  20
497.40036
  0
SEQEND
  0
POLYLINE
  5
114
  8
Layer_0
  62
0
  66
1
  10
0
  20
0
  30
0
  0
VERTEX
  5
114
  8
Layer_0
  10
748.89996
  20
497.36224
  0
VERTEX
  5
115
  8
Layer_0
  10
748.92688
  20
497.37341
  0
VERTEX
  5
116
  8
Layer_0
  10
748.93805
  20
497.40036
  0
VERTEX
  5
117
  8
Layer_0
  10
748.92688
  20
497.42731
  0
VERTEX
  5
118
  8
Layer_0
  10
748.89996
  20
497.43848
  0
SEQEND
  0
POLYLINE
  5
11a
  8
Layer_0
  62
0
  66
1
  10
0
  20
0
  30
0
  0
VERTEX
  5
11a
  8
Layer_0
  10
451.09998
  20
497.43848
  0
VERTEX
  5
11b
  8
Layer_0
  10
451.07306
  20
497.42731
  0
VERTEX
  5
11c
  8
Layer_0
  10
451.06189
  20
497.40036
  0
VERTEX
  5
11d
  8
Layer_0
  10
451.07306
  20
497.37341
  0
VERTEX
  5
11e
  8
Layer_0
  10
451.09998
  20
497.36224
  0
SEQEND
  0
POLYLINE
  5
120
  8
Layer_0
  62
0
  66
1
  10
0
  20
0
  30
0
  0
VERTEX
  5
120
  8
Layer_0
  10
451.09998
  20
402.15036
  0
VERTEX
  5
121
  8
Layer_0
  10
748.89996
  20
402.15036
  0
SEQEND
  0
POLYLINE
  5
123
  8
Layer_0
  62
0
  66
1
  10
0
  20
0
  30
0
  0
VERTEX
  5
123
  8
Layer_0
  10
451.09998
  20
402.18845
  0
VERTEX
  5
124
  8
Layer_0
  10
451.07306
  20
402.17731
  0
VERTEX
  5
125
  8
Layer_0
  10
451.06189
  20
402.15036
  0
VERTEX
  5
126
  8
Layer_0
  10
451.07306
  20
402.12341
  0
VERTEX
  5
127
  8
Layer_0
  10
451.09998
  20
402.11227
  0
SEQEND
  0
POLYLINE
  5
129
  8
Layer_0
  62
0
  66
1
  10
0
  20
0
  30
0
  0
VERTEX
  5
129
  8
Layer_0
  10
752.39996
  20
493.90036
  0
VERTEX
  5
12a
  8
Layer_0
  10
752.39996
  20
405.65036
  0
SEQEND
  0
POLYLINE
  5
12c
  8
Layer_0
  62
0
  66
1
  10
0
  20
0
  30
0
  0
VERTEX
  5
12c
  8
Layer_0
  10
752.36188
  20
405.65036
  0
VERTEX
  5
12d
  8
Layer_0
  10
752.37305
  20
405.62341
  0
VERTEX
  5
12e
  8
Layer_0
  10
752.39996
  20
405.61224
  0
VERTEX
  5
12f
  8
Layer_0
  10
752.42694
  20
405.62341
  0
VERTEX
  5
130
  8
Layer_0
  10
752.43811
  20
405.65036
  0
SEQEND
  0
POLYLINE
  5
132
  8
Layer_0
  62
0
  66
1
  10
0
  20
0
  30
0
  0
VERTEX
  5
132
  8
Layer_0
  10
752.43811
  20
493.90036
  0
VERTEX
  5
133
  8
Layer_0
  10
752.42688
  20
493.92731
  0
VERTEX
  5
134
  8
Layer_0
  10
752.39996
  20
493.93848
  0
VERTEX
  5
135
  8
Layer_0
  10
752.37305
  20
493.92731
  0
VERTEX
  5
136
  8
Layer_0
  10
752.36188
  20
493.90036
  0
SEQEND
  0
POLYLINE
  5
138
  8
Layer_0
  62
0
  66
1
  10
0
  20
0
  30
0
  0
VERTEX
  5
138
  8
Layer_0
  10
655.44995
  20
481.52536
  0
VERTEX
  5
139
  8
Layer_0
  10
655.44995
  20
483.02536
  0
SEQEND
  0
POLYLINE
  5
13b
  8
Layer_0
  62
0
  66
1
  10
0
  20
0
  30
0
  0
VERTEX
  5
13b
  8
Layer_0
  10
655.47498
  20
483.02536
  0
VERTEX
  5
13c
  8
Layer_0
  10
655.46765
  20
483.04303
  0
VERTEX
  5
13d
  8
Layer_0
  10
655.44995
  20
483.05035
  0
VERTEX
  5
13e
  8
Layer_0
  10
655.43225
  20
483.04303
  0
VERTEX
  5
13f
  8
Layer_0
  10
655.42499
  20
483.02536
  0
SEQEND
  0
POLYLINE
  5
141
  8
Layer_0
  62
0
  66
1
  10
0
  20
0
  30
0
  0
VERTEX
  5
141
  8
Layer_0
  10
655.44995
  20
483.02536
  0
VERTEX
  5
142
  8
Layer_0
  10
658.84998
  20
483.02536
  0
SEQEND
  0
POLYLINE
  5
144
  8
Layer_0
  62
0
  66
1
  10
0
  20
0
  30
0
  0
VERTEX
  5
144
  8
Layer_0
  10
658.84998
  20
483.00037
  0
VERTEX
  5
145
  8
Layer_0
  10
658.86768
  20
483.00769
  0
VERTEX
  5
146
  8
Layer_0
  10
658.875
  20
483.02536
  0
VERTEX
  5
147
  8
Layer_0
  10
658.86768
  20
483.04303
  0
VERTEX
  5
148
  8
Layer_0
  10
658.84998
  20
483.05035
  0
SEQEND
  0
POLYLINE
  5
14a
  8
Layer_0
  62
0
  66
1
  10
0
  20
0
  30
0
  0
VERTEX
  5
14a
  8
Layer_0
  10
655.44995
  20
483.05035
  0
VERTEX
  5
14b
  8
Layer_0
  10
655.43225
  20
483.04303
  0
VERTEX
  5
14c
  8
Layer_0
  10
655.42499
  20
483.02536
  0
VERTEX
  5
14d
  8
Layer_0
  10
655.43225
  20
483.00769
  0
VERTEX
  5
14e
  8
Layer_0
  10
655.44995
  20
483.00037
  0
SEQEND
  0
POLYLINE
  5
150
  8
Layer_0
  62
0
  66
1
  10
0
  20
0
  30
0
  0
VERTEX
  5
150
  8
Layer_0
  10
658.84998
  20
483.02536
  0
VERTEX
  5
151
  8
Layer_0
  10
658.84998
  20
481.52536
  0
SEQEND
  0
POLYLINE
  5
153
  8
Layer_0
  62
0
  66
1
  10
0
  20
0
  30
0
  0
VERTEX
  5
153
  8
Layer_0
  10
658.875
  20
483.02536
  0
VERTEX
  5
154
  8
Layer_0
  10
658.86768
  20
483.04303
  0
VERTEX
  5
155
  8
Layer_0
  10
658.84998
  20
483.05035
  0
VERTEX
  5
156
  8
Layer_0
  10
658.83228
  20
483.04303
  0
VERTEX
  5
157
  8
Layer_0
  10
658.82495
  20
483.02536
  0
SEQEND
  0
POLYLINE
  5
159
  8
Layer_0
  62
0
  66
1
  10
0
  20
0
  30
0
  0
VERTEX
  5
159
  8
Layer_0
  10
658.84998
  20
494.22534
  0
VERTEX
  5
15a
  8
Layer_0
  10
655.44995
  20
494.22534
  0
SEQEND
  0
POLYLINE
  5
15c
  8
Layer_0
  62
0
  66
1
  10
0
  20
0
  30
0
  0
VERTEX
  5
15c
  8
Layer_0
  10
655.44995
  20
494.25037
  0
VERTEX
  5
15d
  8
Layer_0
  10
655.43225
  20
494.24304
  0
VERTEX
  5
15e
  8
Layer_0
  10
655.42499
  20
494.22534
  0
VERTEX
  5
15f
  8
Layer_0
  10
655.43225
  20
494.2077
  0
VERTEX
  5
160
  8
Layer_0
  10
655.44995
  20
494.20038
  0
SEQEND
  0
POLYLINE
  5
162
  8
Layer_0
  62
0
  66
1
  10
0
  20
0
  30
0
  0
VERTEX
  5
162
  8
Layer_0
  10
658.84998
  20
494.20038
  0
VERTEX
  5
163
  8
Layer_0
  10
658.86768
  20
494.2077
  0
VERTEX
  5
164
  8
Layer_0
  10
658.875
  20
494.22534
  0
VERTEX
  5
165
  8
Layer_0
  10
658.86768
  20
494.24304
  0
VERTEX
  5
166
  8
Layer_0
  10
658.84998
  20
494.25037
  0
SEQEND
  0
POLYLINE
  5
168
  8
Layer_0
  62
0
  66
1
  10
0
  20
0
  30
0
  0
VERTEX
  5
168
  8
Layer_0
  10
655.44995
  20
494.22534
  0
VERTEX
  5
169
  8
Layer_0
  10
655.44995
  20
492.72534
  0
SEQEND
  0
POLYLINE
  5
16b
  8
Layer_0
  62
0
  66
1
  10
0
  20
0
  30
0
  0
VERTEX
  5
16b
  8
Layer_0
  10
655.42499
  20
492.72534
  0
VERTEX
  5
16c
  8
Layer_0
  10
655.43225
  20
492.70764
  0
VERTEX
  5
16d
  8
Layer_0
  10
655.44995
  20
492.70035
  0
VERTEX
  5
16e
  8
Layer_0
  10
655.46765
  20
492.70764
  0
VERTEX
  5
16f
  8
Layer_0
  10
655.47498
  20
492.72534
  0
SEQEND
  0
POLYLINE
  5
171
  8
Layer_0
  62
0
  66
1
  10
0
  20
0
  30
0
  0
VERTEX
  5
171
  8
Layer_0
  10
655.47498
  20
494.22534
  0
VERTEX
  5
172
  8
Layer_0
  10
655.46765
  20
494.24304
  0
VERTEX
  5
173
  8
Layer_0
  10
655.44995
  20
494.25037
  0
VERTEX
  5
174
  8
Layer_0
  10
655.43225
  20
494.24304
  0
VERTEX
  5
175
  8
Layer_0
  10
655.42499
  20
494.22534
  0
SEQEND
  0
POLYLINE
  5
177
  8
Layer_0
  62
0
  66
1
  10
0
  20
0
  30
0
  0
VERTEX
  5
177
  8
Layer_0
  10
655.44995
  20
492.72534
  0
VERTEX
  5
178
  8
Layer_0
  10
658.84998
  20
492.72534
  0
SEQEND
  0
POLYLINE
  5
17a
  8
Layer_0
  62
0
  66
1
  10
0
  20
0
  30
0
  0
VERTEX
  5
17a
  8
Layer_0
  10
658.84998
  20
492.70038
  0
VERTEX
  5
17b
  8
Layer_0
  10
658.86768
  20
492.7077
  0
VERTEX
  5
17c
  8
Layer_0
  10
658.875
  20
492.72534
  0
VERTEX
  5
17d
  8
Layer_0
  10
658.86768
  20
492.74304
  0
VERTEX
  5
17e
  8
Layer_0
  10
658.84998
  20
492.75037
  0
SEQEND
  0
POLYLINE
  5
180
  8
Layer_0
  62
0
  66
1
  10
0
  20
0
  30
0
  0
VERTEX
  5
180
  8
Layer_0
  10
655.44995
  20
492.75037
  0
VERTEX
  5
181
  8
Layer_0
  10
655.43225
  20
492.74304
  0
VERTEX
  5
182
  8
Layer_0
  10
655.42499
  20
492.72534
  0
VERTEX
  5
183
  8
Layer_0
  10
655.43225
  20
492.7077
  0
VERTEX
  5
184
  8
Layer_0
  10
655.44995
  20
492.70038
  0
SEQEND
  0
POLYLINE
  5
186
  8
Layer_0
  62
0
  66
1
  10
0
  20
0
  30
0
  0
VERTEX
  5
186
  8
Layer_0
  10
658.84998
  20
492.72534
  0
VERTEX
  5
187
  8
Layer_0
  10
658.84998
  20
494.22534
  0
SEQEND
  0
POLYLINE
  5
189
  8
Layer_0
  62
0
  66
1
  10
0
  20
0
  30
0
  0
VERTEX
  5
189
  8
Layer_0
  10
658.875
  20
494.22534
  0
VERTEX
  5
18a
  8
Layer_0
  10
658.86768
  20
494.24304
  0
VERTEX
  5
18b
  8
Layer_0
  10
658.84998
  20
494.25037
  0
VERTEX
  5
18c
  8
Layer_0
  10
658.83228
  20
494.24304
  0
VERTEX
  5
18d
  8
Layer_0
  10
658.82495
  20
494.22534
  0
SEQEND
  0
POLYLINE
  5
18f
  8
Layer_0
  62
0
  66
1
  10
0
  20
0
  30
0
  0
VERTEX
  5
18f
  8
Layer_0
  10
658.82495
  20
492.72534
  0
VERTEX
  5
190
  8
Layer_0
  10
658.83228
  20
492.7077
  0
VERTEX
  5
191
  8
Layer_0
  10
658.84998
  20
492.70038
  0
VERTEX
  5
192
  8
Layer_0
  10
658.86768
  20
492.7077
  0
VERTEX
  5
193
  8
Layer_0
  10
658.875
  20
492.72534
  0
SEQEND
  0
POLYLINE
  5
195
  8
Layer_0
  62
0
  66
1
  10
0
  20
0
  30
0
  0
VERTEX
  5
195
  8
Layer_0
  10
658.49994
  20
482.27536
  0
VERTEX
  5
196
  8
Layer_0
  10
655.79999
  20
482.27536
  0
SEQEND
  0
POLYLINE
  5
198
  8
Layer_0
  62
0
  66
1
  10
0
  20
0
  30
0
  0
VERTEX
  5
198
  8
Layer_0
  10
655.79999
  20
482.95035
  0
VERTEX
  5
199
  8
Layer_0
  10
655.66394
  20
482.93665
  0
VERTEX
  5
19a
  8
Layer_0
  10
655.53723
  20
482.89731
  0
VERTEX
  5
19b
  8
Layer_0
  10
655.42249
  20
482.83508
  0
VERTEX
  5
19c
  8
Layer_0
  10
655.32263
  20
482.75266
  0
VERTEX
  5
19d
  8
Layer_0
  10
655.24023
  20
482.65277
  0
VERTEX
  5
19e
  8
Layer_0
  10
655.17798
  20
482.53809
  0
VERTEX
  5
19f
  8
Layer_0
  10
655.13867
  20
482.41138
  0
VERTEX
  5
1a0
  8
Layer_0
  10
655.12494
  20
482.27536
  0
VERTEX
  5
1a1
  8
Layer_0
  10
655.13867
  20
482.13934
  0
VERTEX
  5
1a2
  8
Layer_0
  10
655.17798
  20
482.01263
  0
VERTEX
  5
1a3
  8
Layer_0
  10
655.24023
  20
481.89795
  0
VERTEX
  5
1a4
  8
Layer_0
  10
655.32263
  20
481.79807
  0
VERTEX
  5
1a5
  8
Layer_0
  10
655.42249
  20
481.71564
  0
VERTEX
  5
1a6
  8
Layer_0
  10
655.53723
  20
481.65341
  0
VERTEX
  5
1a7
  8
Layer_0
  10
655.66394
  20
481.61407
  0
VERTEX
  5
1a8
  8
Layer_0
  10
655.79999
  20
481.60037
  0
SEQEND
  0
POLYLINE
  5
1aa
  8
Layer_0
  62
0
  66
1
  10
0
  20
0
  30
0
  0
VERTEX
  5
1aa
  8
Layer_0
  10
658.49994
  20
481.60037
  0
VERTEX
  5
1ab
  8
Layer_0
  10
658.63599
  20
481.61407
  0
VERTEX
  5
1ac
  8
Layer_0
  10
658.7627
  20
481.65341
  0
VERTEX
  5
1ad
  8
Layer_0
  10
658.87744
  20
481.71564
  0
VERTEX
  5
1ae
  8
Layer_0
  10
658.97729
  20
481.79807
  0
VERTEX
  5
1af
  8
Layer_0
  10
659.05969
  20
481.89795
  0
VERTEX
  5
1b0
  8
Layer_0
  10
659.12195
  20
482.01263
  0
VERTEX
  5
1b1
  8
Layer_0
  10
659.16125
  20
482.13934
  0
VERTEX
  5
1b2
  8
Layer_0
  10
659.17499
  20
482.27536
  0
VERTEX
  5
1b3
  8
Layer_0
  10
659.16125
  20
482.41138
  0
VERTEX
  5
1b4
  8
Layer_0
  10
659.12195
  20
482.53809
  0
VERTEX
  5
1b5
  8
Layer_0
  10
659.05969
  20
482.65277
  0
VERTEX
  5
1b6
  8
Layer_0
  10
658.97729
  20
482.75266
  0
VERTEX
  5
1b7
  8
Layer_0
  10
658.87744
  20
482.83508
  0
VERTEX
  5
1b8
  8
Layer_0
  10
658.7627
  20
482.89731
  0
VERTEX
  5
1b9
  8
Layer_0
  10
658.63599
  20
482.93665
  0
VERTEX
  5
1ba
  8
Layer_0
  10
658.49994
  20
482.95035
  0
SEQEND
  0
POLYLINE
  5
1bc
  8
Layer_0
  62
0
  66
1
  10
0
  20
0
  30
0
  0
VERTEX
  5
1bc
  8
Layer_0
  10
658.49994
  20
493.47534
  0
VERTEX
  5
1bd
  8
Layer_0
  10
655.79999
  20
493.47534
  0
SEQEND
  0
POLYLINE
  5
1bf
  8
Layer_0
  62
0
  66
1
  10
0
  20
0
  30
0
  0
VERTEX
  5
1bf
  8
Layer_0
  10
655.79999
  20
494.15033
  0
VERTEX
  5
1c0
  8
Layer_0
  10
655.66394
  20
494.1366
  0
VERTEX
  5
1c1
  8
Layer_0
  10
655.53723
  20
494.09729
  0
VERTEX
  5
1c2
  8
Layer_0
  10
655.42249
  20
494.03503
  0
VERTEX
  5
1c3
  8
Layer_0
  10
655.32263
  20
493.95264
  0
VERTEX
  5
1c4
  8
Layer_0
  10
655.24023
  20
493.85275
  0
VERTEX
  5
1c5
  8
Layer_0
  10
655.17798
  20
493.7381
  0
VERTEX
  5
1c6
  8
Layer_0
  10
655.13867
  20
493.61139
  0
VERTEX
  5
1c7
  8
Layer_0
  10
655.12494
  20
493.47534
  0
VERTEX
  5
1c8
  8
Layer_0
  10
655.13867
  20
493.33929
  0
VERTEX
  5
1c9
  8
Layer_0
  10
655.17798
  20
493.21259
  0
VERTEX
  5
1ca
  8
Layer_0
  10
655.24023
  20
493.09793
  0
VERTEX
  5
1cb
  8
Layer_0
  10
655.32263
  20
492.99805
  0
VERTEX
  5
1cc
  8
Layer_0
  10
655.42249
  20
492.91565
  0
VERTEX
  5
1cd
  8
Layer_0
  10
655.53723
  20
492.85339
  0
VERTEX
  5
1ce
  8
Layer_0
  10
655.66394
  20
492.81409
  0
VERTEX
  5
1cf
  8
Layer_0
  10
655.79999
  20
492.80035
  0
SEQEND
  0
POLYLINE
  5
1d1
  8
Layer_0
  62
0
  66
1
  10
0
  20
0
  30
0
  0
VERTEX
  5
1d1
  8
Layer_0
  10
658.49994
  20
492.80035
  0
VERTEX
  5
1d2
  8
Layer_0
  10
658.63599
  20
492.81409
  0
VERTEX
  5
1d3
  8
Layer_0
  10
658.7627
  20
492.85339
  0
VERTEX
  5
1d4
  8
Layer_0
  10
658.87744
  20
492.91565
  0
VERTEX
  5
1d5
  8
Layer_0
  10
658.97729
  20
492.99805
  0
VERTEX
  5
1d6
  8
Layer_0
  10
659.05969
  20
493.09793
  0
VERTEX
  5
1d7
  8
Layer_0
  10
659.12195
  20
493.21259
  0
VERTEX
  5
1d8
  8
Layer_0
  10
659.16125
  20
493.33929
  0
VERTEX
  5
1d9
  8
Layer_0
  10
659.17499
  20
493.47534
  0
VERTEX
  5
1da
  8
Layer_0
  10
659.16125
  20
493.61139
  0
VERTEX
  5
1db
  8
Layer_0
  10
659.12195
  20
493.7381
  0
VERTEX
  5
1dc
  8
Layer_0
  10
659.05969
  20
493.85275
  0
VERTEX
  5
1dd
  8
Layer_0
  10
658.97729
  20
493.95264
  0
VERTEX
  5
1de
  8
Layer_0
  10
658.87744
  20
494.03503
  0
VERTEX
  5
1df
  8
Layer_0
  10
658.7627
  20
494.09729
  0
VERTEX
  5
1e0
  8
Layer_0
  10
658.63599
  20
494.1366
  0
VERTEX
  5
1e1
  8
Layer_0
  10
658.49994
  20
494.15033
  0
SEQEND
  0
POLYLINE
  5
1e3
  8
Layer_0
  62
0
  66
1
  10
0
  20
0
  30
0
  0
VERTEX
  5
1e3
  8
Layer_0
  10
687.42499
  20
462.47537
  0
VERTEX
  5
1e4
  8
Layer_0
  10
684.02496
  20
462.47537
  0
SEQEND
  0
POLYLINE
  5
1e6
  8
Layer_0
  62
0
  66
1
  10
0
  20
0
  30
0
  0
VERTEX
  5
1e6
  8
Layer_0
  10
684.02496
  20
462.50037
  0
VERTEX
  5
1e7
  8
Layer_0
  10
684.00732
  20
462.49304
  0
VERTEX
  5
1e8
  8
Layer_0
  10
684
  20
462.47534
  0
VERTEX
  5
1e9
  8
Layer_0
  10
684.00732
  20
462.45764
  0
VERTEX
  5
1ea
  8
Layer_0
  10
684.02496
  20
462.45035
  0
SEQEND
  0
POLYLINE
  5
1ec
  8
Layer_0
  62
0
  66
1
  10
0
  20
0
  30
0
  0
VERTEX
  5
1ec
  8
Layer_0
  10
687.42499
  20
462.45035
  0
VERTEX
  5
1ed
  8
Layer_0
  10
687.44263
  20
462.45764
  0
VERTEX
  5
1ee
  8
Layer_0
  10
687.44995
  20
462.47534
  0
VERTEX
  5
1ef
  8
Layer_0
  10
687.44263
  20
462.49304
  0
VERTEX
  5
1f0
  8
Layer_0
  10
687.42499
  20
462.50037
  0
SEQEND
  0
POLYLINE
  5
1f2
  8
Layer_0
  62
0
  66
1
  10
0
  20
0
  30
0
  0
VERTEX
  5
1f2
  8
Layer_0
  10
684.02496
  20
462.47537
  0
VERTEX
  5
1f3
  8
Layer_0
  10
684.02496
  20
463.97537
  0
SEQEND
  0
POLYLINE
  5
1f5
  8
Layer_0
  62
0
  66
1
  10
0
  20
0
  30
0
  0
VERTEX
  5
1f5
  8
Layer_0
  10
684.04999
  20
463.97537
  0
VERTEX
  5
1f6
  8
Layer_0
  10
684.0426
  20
463.99304
  0
VERTEX
  5
1f7
  8
Layer_0
  10
684.02496
  20
464.00037
  0
VERTEX
  5
1f8
  8
Layer_0
  10
684.00732
  20
463.99304
  0
VERTEX
  5
1f9
  8
Layer_0
  10
684
  20
463.97537
  0
SEQEND
  0
POLYLINE
  5
1fb
  8
Layer_0
  62
0
  66
1
  10
0
  20
0
  30
0
  0
VERTEX
  5
1fb
  8
Layer_0
  10
684
  20
462.47537
  0
VERTEX
  5
1fc
  8
Layer_0
  10
684.00732
  20
462.45764
  0
VERTEX
  5
1fd
  8
Layer_0
  10
684.02496
  20
462.45035
  0
VERTEX
  5
1fe
  8
Layer_0
  10
684.0426
  20
462.45764
  0
VERTEX
  5
1ff
  8
Layer_0
  10
684.04999
  20
462.47537
  0
SEQEND
  0
POLYLINE
  5
201
  8
Layer_0
  62
0
  66
1
  10
0
  20
0
  30
0
  0
VERTEX
  5
201
  8
Layer_0
  10
684.02496
  20
463.97537
  0
VERTEX
  5
202
  8
Layer_0
  10
687.42499
  20
463.97537
  0
SEQEND
  0
POLYLINE
  5
204
  8
Layer_0
  62
0
  66
1
  10
0
  20
0
  30
0
  0
VERTEX
  5
204
  8
Layer_0
  10
687.42499
  20
463.95035
  0
VERTEX
  5
205
  8
Layer_0
  10
687.44263
  20
463.95764
  0
VERTEX
  5
206
  8
Layer_0
  10
687.44995
  20
463.97534
  0
VERTEX
  5
207
  8
Layer_0
  10
687.44263
  20
463.99304
  0
VERTEX
  5
208
  8
Layer_0
  10
687.42499
  20
464.00037
  0
SEQEND
  0
POLYLINE
  5
20a
  8
Layer_0
  62
0
  66
1
  10
0
  20
0
  30
0
  0
VERTEX
  5
20a
  8
Layer_0
  10
684.02496
  20
464.00037
  0
VERTEX
  5
20b
  8
Layer_0
  10
684.00732
  20
463.99304
  0
VERTEX
  5
20c
  8
Layer_0
  10
684
  20
463.97534
  0
VERTEX
  5
20d
  8
Layer_0
  10
684.00732
  20
463.95764
  0
VERTEX
  5
20e
  8
Layer_0
  10
684.02496
  20
463.95035
  0
SEQEND
  0
POLYLINE
  5
210
  8
Layer_0
  62
0
  66
1
  10
0
  20
0
  30
0
  0
VERTEX
  5
210
  8
Layer_0
  10
687.42499
  20
463.97537
  0
VERTEX
  5
211
  8
Layer_0
  10
687.42499
  20
462.47537
  0
SEQEND
  0
POLYLINE
  5
213
  8
Layer_0
  62
0
  66
1
  10
0
  20
0
  30
0
  0
VERTEX
  5
213
  8
Layer_0
  10
687.39996
  20
462.47537
  0
VERTEX
  5
214
  8
Layer_0
  10
687.40735
  20
462.45764
  0
VERTEX
  5
215
  8
Layer_0
  10
687.42499
  20
462.45035
  0
VERTEX
  5
216
  8
Layer_0
  10
687.44263
  20
462.45764
  0
VERTEX
  5
217
  8
Layer_0
  10
687.44995
  20
462.47537
  0
SEQEND
  0
POLYLINE
  5
219
  8
Layer_0
  62
0
  66
1
  10
0
  20
0
  30
0
  0
VERTEX
  5
219
  8
Layer_0
  10
687.44995
  20
463.97537
  0
VERTEX
  5
21a
  8
Layer_0
  10
687.44263
  20
463.99304
  0
VERTEX
  5
21b
  8
Layer_0
  10
687.42499
  20
464.00037
  0
VERTEX
  5
21c
  8
Layer_0
  10
687.40735
  20
463.99304
  0
VERTEX
  5
21d
  8
Layer_0
  10
687.39996
  20
463.97537
  0
SEQEND
  0
POLYLINE
  5
21f
  8
Layer_0
  62
0
  66
1
  10
0
  20
0
  30
0
  0
VERTEX
  5
21f
  8
Layer_0
  10
684.02496
  20
475.17535
  0
VERTEX
  5
220
  8
Layer_0
  10
684.02496
  20
473.67535
  0
SEQEND
  0
POLYLINE
  5
222
  8
Layer_0
  62
0
  66
1
  10
0
  20
0
  30
0
  0
VERTEX
  5
222
  8
Layer_0
  10
684
  20
473.67535
  0
VERTEX
  5
223
  8
Layer_0
  10
684.00732
  20
473.65765
  0
VERTEX
  5
224
  8
Layer_0
  10
684.02496
  20
473.65036
  0
VERTEX
  5
225
  8
Layer_0
  10
684.0426
  20
473.65765
  0
VERTEX
  5
226
  8
Layer_0
  10
684.04999
  20
473.67535
  0
SEQEND
  0
POLYLINE
  5
228
  8
Layer_0
  62
0
  66
1
  10
0
  20
0
  30
0
  0
VERTEX
  5
228
  8
Layer_0
  10
684.02496
  20
473.67535
  0
VERTEX
  5
229
  8
Layer_0
  10
687.42499
  20
473.67535
  0
SEQEND
  0
POLYLINE
  5
22b
  8
Layer_0
  62
0
  66
1
  10
0
  20
0
  30
0
  0
VERTEX
  5
22b
  8
Layer_0
  10
687.42499
  20
473.65036
  0
VERTEX
  5
22c
  8
Layer_0
  10
687.44263
  20
473.65765
  0
VERTEX
  5
22d
  8
Layer_0
  10
687.44995
  20
473.67535
  0
VERTEX
  5
22e
  8
Layer_0
  10
687.44263
  20
473.69305
  0
VERTEX
  5
22f
  8
Layer_0
  10
687.42499
  20
473.70038
  0
SEQEND
  0
POLYLINE
  5
231
  8
Layer_0
  62
0
  66
1
  10
0
  20
0
  30
0
  0
VERTEX
  5
231
  8
Layer_0
  10
684.02496
  20
473.70038
  0
VERTEX
  5
232
  8
Layer_0
  10
684.00732
  20
473.69305
  0
VERTEX
  5
233
  8
Layer_0
  10
684
  20
473.67535
  0
VERTEX
  5
234
  8
Layer_0
  10
684.00732
  20
473.65765
  0
VERTEX
  5
235
  8
Layer_0
  10
684.02496
  20
473.65036
  0
SEQEND
  0
POLYLINE
  5
237
  8
Layer_0
  62
0
  66
1
  10
0
  20
0
  30
0
  0
VERTEX
  5
237
  8
Layer_0
  10
687.42499
  20
473.67535
  0
VERTEX
  5
238
  8
Layer_0
  10
687.42499
  20
475.17535
  0
SEQEND
  0
POLYLINE
  5
23a
  8
Layer_0
  62
0
  66
1
  10
0
  20
0
  30
0
  0
VERTEX
  5
23a
  8
Layer_0
  10
687.39996
  20
473.67535
  0
VERTEX
  5
23b
  8
Layer_0
  10
687.40735
  20
473.65765
  0
VERTEX
  5
23c
  8
Layer_0
  10
687.42499
  20
473.65036
  0
VERTEX
  5
23d
  8
Layer_0
  10
687.44263
  20
473.65765
  0
VERTEX
  5
23e
  8
Layer_0
  10
687.44995
  20
473.67535
  0
SEQEND
  0
POLYLINE
  5
240
  8
Layer_0
  62
0
  66
1
  10
0
  20
0
  30
0
  0
VERTEX
  5
240
  8
Layer_0
  10
687.07495
  20
463.22537
  0
VERTEX
  5
241
  8
Layer_0
  10
684.375
  20
463.22537
  0
SEQEND
  0
POLYLINE
  5
243
  8
Layer_0
  62
0
  66
1
  10
0
  20
0
  30
0
  0
VERTEX
  5
243
  8
Layer_0
  10
687.07495
  20
462.55038
  0
VERTEX
  5
244
  8
Layer_0
  10
687.211
  20
462.56409
  0
VERTEX
  5
245
  8
Layer_0
  10
687.33771
  20
462.60342
  0
VERTEX
  5
246
  8
Layer_0
  10
687.45239
  20
462.66565
  0
VERTEX
  5
247
  8
Layer_0
  10
687.55225
  20
462.74808
  0
VERTEX
  5
248
  8
Layer_0
  10
687.63464
  20
462.84796
  0
VERTEX
  5
249
  8
Layer_0
  10
687.6969
  20
462.96265
  0
VERTEX
  5
24a
  8
Layer_0
  10
687.73627
  20
463.08936
  0
VERTEX
  5
24b
  8
Layer_0
  10
687.75
  20
463.22537
  0
VERTEX
  5
24c
  8
Layer_0
  10
687.73627
  20
463.36139
  0
VERTEX
  5
24d
  8
Layer_0
  10
687.6969
  20
463.4881
  0
VERTEX
  5
24e
  8
Layer_0
  10
687.63464
  20
463.60278
  0
VERTEX
  5
24f
  8
Layer_0
  10
687.55225
  20
463.70267
  0
VERTEX
  5
250
  8
Layer_0
  10
687.45239
  20
463.7851
  0
VERTEX
  5
251
  8
Layer_0
  10
687.33771
  20
463.84732
  0
VERTEX
  5
252
  8
Layer_0
  10
687.211
  20
463.88666
  0
VERTEX
  5
253
  8
Layer_0
  10
687.07495
  20
463.90036
  0
SEQEND
  0
POLYLINE
  5
255
  8
Layer_0
  62
0
  66
1
  10
0
  20
0
  30
0
  0
VERTEX
  5
255
  8
Layer_0
  10
684.375
  20
463.90036
  0
VERTEX
  5
256
  8
Layer_0
  10
684.23895
  20
463.88666
  0
VERTEX
  5
257
  8
Layer_0
  10
684.11224
  20
463.84732
  0
VERTEX
  5
258
  8
Layer_0
  10
683.99756
  20
463.7851
  0
VERTEX
  5
259
  8
Layer_0
  10
683.89771
  20
463.70267
  0
VERTEX
  5
25a
  8
Layer_0
  10
683.81531
  20
463.60278
  0
VERTEX
  5
25b
  8
Layer_0
  10
683.75305
  20
463.4881
  0
VERTEX
  5
25c
  8
Layer_0
  10
683.71368
  20
463.36139
  0
VERTEX
  5
25d
  8
Layer_0
  10
683.69995
  20
463.22537
  0
VERTEX
  5
25e
  8
Layer_0
  10
683.71368
  20
463.08936
  0
VERTEX
  5
25f
  8
Layer_0
  10
683.75305
  20
462.96265
  0
VERTEX
  5
260
  8
Layer_0
  10
683.81531
  20
462.84796
  0
VERTEX
  5
261
  8
Layer_0
  10
683.89771
  20
462.74808
  0
VERTEX
  5
262
  8
Layer_0
  10
683.99756
  20
462.66565
  0
VERTEX
  5
263
  8
Layer_0
  10
684.11224
  20
462.60342
  0
VERTEX
  5
264
  8
Layer_0
  10
684.23895
  20
462.56409
  0
VERTEX
  5
265
  8
Layer_0
  10
684.375
  20
462.55038
  0
SEQEND
  0
POLYLINE
  5
267
  8
Layer_0
  62
0
  66
1
  10
0
  20
0
  30
0
  0
VERTEX
  5
267
  8
Layer_0
  10
687.07495
  20
474.42535
  0
VERTEX
  5
268
  8
Layer_0
  10
684.375
  20
474.42535
  0
SEQEND
  0
POLYLINE
  5
26a
  8
Layer_0
  62
0
  66
1
  10
0
  20
0
  30
0
  0
VERTEX
  5
26a
  8
Layer_0
  10
684.375
  20
475.10034
  0
VERTEX
  5
26b
  8
Layer_0
  10
684.23895
  20
475.08661
  0
VERTEX
  5
26c
  8
Layer_0
  10
684.11224
  20
475.0473
  0
VERTEX
  5
26d
  8
Layer_0
  10
683.99756
  20
474.98505
  0
VERTEX
  5
26e
  8
Layer_0
  10
683.89771
  20
474.90265
  0
VERTEX
  5
26f
  8
Layer_0
  10
683.81531
  20
474.80276
  0
VERTEX
  5
270
  8
Layer_0
  10
683.75305
  20
474.68811
  0
VERTEX
  5
271
  8
Layer_0
  10
683.71368
  20
474.5614
  0
VERTEX
  5
272
  8
Layer_0
  10
683.69995
  20
474.42535
  0
VERTEX
  5
273
  8
Layer_0
  10
683.71368
  20
474.28931
  0
VERTEX
  5
274
  8
Layer_0
  10
683.75305
  20
474.1626
  0
VERTEX
  5
275
  8
Layer_0
  10
683.81531
  20
474.04794
  0
VERTEX
  5
276
  8
Layer_0
  10
683.89771
  20
473.94806
  0
VERTEX
  5
277
  8
Layer_0
  10
683.99756
  20
473.86566
  0
VERTEX
  5
278
  8
Layer_0
  10
684.11224
  20
473.80341
  0
VERTEX
  5
279
  8
Layer_0
  10
684.23895
  20
473.7641
  0
VERTEX
  5
27a
  8
Layer_0
  10
684.375
  20
473.75037
  0
SEQEND
  0
POLYLINE
  5
27c
  8
Layer_0
  62
0
  66
1
  10
0
  20
0
  30
0
  0
VERTEX
  5
27c
  8
Layer_0
  10
687.07495
  20
473.75037
  0
VERTEX
  5
27d
  8
Layer_0
  10
687.211
  20
473.7641
  0
VERTEX
  5
27e
  8
Layer_0
  10
687.33771
  20
473.80341
  0
VERTEX
  5
27f
  8
Layer_0
  10
687.45239
  20
473.86566
  0
VERTEX
  5
280
  8
Layer_0
  10
687.55225
  20
473.94806
  0
VERTEX
  5
281
  8
Layer_0
  10
687.63464
  20
474.04794
  0
VERTEX
  5
282
  8
Layer_0
  10
687.6969
  20
474.1626
  0
VERTEX
  5
283
  8
Layer_0
  10
687.73627
  20
474.28931
  0
VERTEX
  5
284
  8
Layer_0
  10
687.75
  20
474.42535
  0
VERTEX
  5
285
  8
Layer_0
  10
687.73627
  20
474.5614
  0
VERTEX
  5
286
  8
Layer_0
  10
687.6969
  20
474.68811
  0
VERTEX
  5
287
  8
Layer_0
  10
687.63464
  20
474.80276
  0
VERTEX
  5
288
  8
Layer_0
  10
687.55225
  20
474.90265
  0
VERTEX
  5
289
  8
Layer_0
  10
687.45239
  20
474.98505
  0
VERTEX
  5
28a
  8
Layer_0
  10
687.33771
  20
475.0473
  0
VERTEX
  5
28b
  8
Layer_0
  10
687.211
  20
475.08661
  0
VERTEX
  5
28c
  8
Layer_0
  10
687.07495
  20
475.10034
  0
SEQEND
  0
POLYLINE
  5
28e
  8
Layer_0
  62
0
  66
1
  10
0
  20
0
  30
0
  0
VERTEX
  5
28e
  8
Layer_0
  10
712.59998
  20
481.52536
  0
VERTEX
  5
28f
  8
Layer_0
  10
712.59998
  20
483.02536
  0
SEQEND
  0
POLYLINE
  5
291
  8
Layer_0
  62
0
  66
1
  10
0
  20
0
  30
0
  0
VERTEX
  5
291
  8
Layer_0
  10
712.625
  20
483.02536
  0
VERTEX
  5
292
  8
Layer_0
  10
712.61768
  20
483.04303
  0
VERTEX
  5
293
  8
Layer_0
  10
712.59998
  20
483.05035
  0
VERTEX
  5
294
  8
Layer_0
  10
712.58228
  20
483.04303
  0
VERTEX
  5
295
  8
Layer_0
  10
712.57495
  20
483.02536
  0
SEQEND
  0
POLYLINE
  5
297
  8
Layer_0
  62
0
  66
1
  10
0
  20
0
  30
0
  0
VERTEX
  5
297
  8
Layer_0
  10
712.59998
  20
483.02536
  0
VERTEX
  5
298
  8
Layer_0
  10
716
  20
483.02536
  0
SEQEND
  0
POLYLINE
  5
29a
  8
Layer_0
  62
0
  66
1
  10
0
  20
0
  30
0
  0
VERTEX
  5
29a
  8
Layer_0
  10
716
  20
483.00037
  0
VERTEX
  5
29b
  8
Layer_0
  10
716.01764
  20
483.00769
  0
VERTEX
  5
29c
  8
Layer_0
  10
716.02496
  20
483.02536
  0
VERTEX
  5
29d
  8
Layer_0
  10
716.01764
  20
483.04303
  0
VERTEX
  5
29e
  8
Layer_0
  10
716
  20
483.05035
  0
SEQEND
  0
POLYLINE
  5
2a0
  8
Layer_0
  62
0
  66
1
  10
0
  20
0
  30
0
  0
VERTEX
  5
2a0
  8
Layer_0
  10
712.59998
  20
483.05035
  0
VERTEX
  5
2a1
  8
Layer_0
  10
712.58228
  20
483.04303
  0
VERTEX
  5
2a2
  8
Layer_0
  10
712.57495
  20
483.02536
  0
VERTEX
  5
2a3
  8
Layer_0
  10
712.58228
  20
483.00769
  0
VERTEX
  5
2a4
  8
Layer_0
  10
712.59998
  20
483.00037
  0
SEQEND
  0
POLYLINE
  5
2a6
  8
Layer_0
  62
0
  66
1
  10
0
  20
0
  30
0
  0
VERTEX
  5
2a6
  8
Layer_0
  10
716
  20
483.02536
  0
VERTEX
  5
2a7
  8
Layer_0
  10
716
  20
481.52536
  0
SEQEND
  0
POLYLINE
  5
2a9
  8
Layer_0
  62
0
  66
1
  10
0
  20
0
  30
0
  0
VERTEX
  5
2a9
  8
Layer_0
  10
716.02496
  20
483.02536
  0
VERTEX
  5
2aa
  8
Layer_0
  10
716.01764
  20
483.04303
  0
VERTEX
  5
2ab
  8
Layer_0
  10
716
  20
483.05035
  0
VERTEX
  5
2ac
  8
Layer_0
  10
715.9823
  20
483.04303
  0
VERTEX
  5
2ad
  8
Layer_0
  10
715.97498
  20
483.02536
  0
SEQEND
  0
POLYLINE
  5
2af
  8
Layer_0
  62
0
  66
1
  10
0
  20
0
  30
0
  0
VERTEX
  5
2af
  8
Layer_0
  10
716
  20
494.22534
  0
VERTEX
  5
2b0
  8
Layer_0
  10
712.59998
  20
494.22534
  0
SEQEND
  0
POLYLINE
  5
2b2
  8
Layer_0
  62
0
  66
1
  10
0
  20
0
  30
0
  0
VERTEX
  5
2b2
  8
Layer_0
  10
712.59998
  20
494.25037
  0
VERTEX
  5
2b3
  8
Layer_0
  10
712.58228
  20
494.24304
  0
VERTEX
  5
2b4
  8
Layer_0
  10
712.57495
  20
494.22534
  0
VERTEX
  5
2b5
  8
Layer_0
  10
712.58228
  20
494.2077
  0
VERTEX
  5
2b6
  8
Layer_0
  10
712.59998
  20
494.20038
  0
SEQEND
  0
POLYLINE
  5
2b8
  8
Layer_0
  62
0
  66
1
  10
0
  20
0
  30
0
  0
VERTEX
  5
2b8
  8
Layer_0
  10
716
  20
494.20038
  0
VERTEX
  5
2b9
  8
Layer_0
  10
716.01764
  20
494.2077
  0
VERTEX
  5
2ba
  8
Layer_0
  10
716.02496
  20
494.22534
  0
VERTEX
  5
2bb
  8
Layer_0
  10
716.01764
  20
494.24304
  0
VERTEX
  5
2bc
  8
Layer_0
  10
716
  20
494.25037
  0
SEQEND
  0
POLYLINE
  5
2be
  8
Layer_0
  62
0
  66
1
  10
0
  20
0
  30
0
  0
VERTEX
  5
2be
  8
Layer_0
  10
712.59998
  20
494.22534
  0
VERTEX
  5
2bf
  8
Layer_0
  10
712.59998
  20
492.72534
  0
SEQEND
  0
POLYLINE
  5
2c1
  8
Layer_0
  62
0
  66
1
  10
0
  20
0
  30
0
  0
VERTEX
  5
2c1
  8
Layer_0
  10
712.57495
  20
492.72534
  0
VERTEX
  5
2c2
  8
Layer_0
  10
712.58228
  20
492.7077
  0
VERTEX
  5
2c3
  8
Layer_0
  10
712.59998
  20
492.70038
  0
VERTEX
  5
2c4
  8
Layer_0
  10
712.61768
  20
492.7077
  0
VERTEX
  5
2c5
  8
Layer_0
  10
712.625
  20
492.72534
  0
SEQEND
  0
POLYLINE
  5
2c7
  8
Layer_0
  62
0
  66
1
  10
0
  20
0
  30
0
  0
VERTEX
  5
2c7
  8
Layer_0
  10
712.625
  20
494.22534
  0
VERTEX
  5
2c8
  8
Layer_0
  10
712.61768
  20
494.24304
  0
VERTEX
  5
2c9
  8
Layer_0
  10
712.59998
  20
494.25037
  0
VERTEX
  5
2ca
  8
Layer_0
  10
712.58228
  20
494.24304
  0
VERTEX
  5
2cb
  8
Layer_0
  10
712.57495
  20
494.22534
  0
SEQEND
  0
POLYLINE
  5
2cd
  8
Layer_0
  62
0
  66
1
  10
0
  20
0
  30
0
  0
VERTEX
  5
2cd
  8
Layer_0
  10
712.59998
  20
492.72534
  0
VERTEX
  5
2ce
  8
Layer_0
  10
716
  20
492.72534
  0
SEQEND
  0
POLYLINE
  5
2d0
  8
Layer_0
  62
0
  66
1
  10
0
  20
0
  30
0
  0
VERTEX
  5
2d0
  8
Layer_0
  10
716
  20
492.70038
  0
VERTEX
  5
2d1
  8
Layer_0
  10
716.01764
  20
492.7077
  0
VERTEX
  5
2d2
  8
Layer_0
  10
716.02496
  20
492.72534
  0
VERTEX
  5
2d3
  8
Layer_0
  10
716.01764
  20
492.74304
  0
VERTEX
  5
2d4
  8
Layer_0
  10
716
  20
492.75037
  0
SEQEND
  0
POLYLINE
  5
2d6
  8
Layer_0
  62
0
  66
1
  10
0
  20
0
  30
0
  0
VERTEX
  5
2d6
  8
Layer_0
  10
712.59998
  20
492.75037
  0
VERTEX
  5
2d7
  8
Layer_0
  10
712.58228
  20
492.74304
  0
VERTEX
  5
2d8
  8
Layer_0
  10
712.57495
  20
492.72534
  0
VERTEX
  5
2d9
  8
Layer_0
  10
712.58228
  20
492.7077
  0
VERTEX
  5
2da
  8
Layer_0
  10
712.59998
  20
492.70038
  0
SEQEND
  0
POLYLINE
  5
2dc
  8
Layer_0
  62
0
  66
1
  10
0
  20
0
  30
0
  0
VERTEX
  5
2dc
  8
Layer_0
  10
716
  20
492.72534
  0
VERTEX
  5
2dd
  8
Layer_0
  10
716
  20
494.22534
  0
SEQEND
  0
POLYLINE
  5
2df
  8
Layer_0
  62
0
  66
1
  10
0
  20
0
  30
0
  0
VERTEX
  5
2df
  8
Layer_0
  10
716.02496
  20
494.22534
  0
VERTEX
  5
2e0
  8
Layer_0
  10
716.01764
  20
494.24304
  0
VERTEX
  5
2e1
  8
Layer_0
  10
716
  20
494.25037
  0
VERTEX
  5
2e2
  8
Layer_0
  10
715.9823
  20
494.24304
  0
VERTEX
  5
2e3
  8
Layer_0
  10
715.97498
  20
494.22534
  0
SEQEND
  0
POLYLINE
  5
2e5
  8
Layer_0
  62
0
  66
1
  10
0
  20
0
  30
0
  0
VERTEX
  5
2e5
  8
Layer_0
  10
715.97498
  20
492.72534
  0
VERTEX
  5
2e6
  8
Layer_0
  10
715.9823
  20
492.7077
  0
VERTEX
  5
2e7
  8
Layer_0
  10
716
  20
492.70038
  0
VERTEX
  5
2e8
  8
Layer_0
  10
716.01764
  20
492.7077
  0
VERTEX
  5
2e9
  8
Layer_0
  10
716.02496
  20
492.72534
  0
SEQEND
  0
POLYLINE
  5
2eb
  8
Layer_0
  62
0
  66
1
  10
0
  20
0
  30
0
  0
VERTEX
  5
2eb
  8
Layer_0
  10
715.65002
  20
482.27536
  0
VERTEX
  5
2ec
  8
Layer_0
  10
712.94995
  20
482.27536
  0
SEQEND
  0
POLYLINE
  5
2ee
  8
Layer_0
  62
0
  66
1
  10
0
  20
0
  30
0
  0
VERTEX
  5
2ee
  8
Layer_0
  10
712.94995
  20
482.95035
  0
VERTEX
  5
2ef
  8
Layer_0
  10
712.81396
  20
482.93665
  0
VERTEX
  5
2f0
  8
Layer_0
  10
712.68726
  20
482.89731
  0
VERTEX
  5
2f1
  8
Layer_0
  10
712.57263
  20
482.83508
  0
VERTEX
  5
2f2
  8
Layer_0
  10
712.47266
  20
482.75266
  0
VERTEX
  5
2f3
  8
Layer_0
  10
712.39026
  20
482.65277
  0
VERTEX
  5
2f4
  8
Layer_0
  10
712.328
  20
482.53809
  0
VERTEX
  5
2f5
  8
Layer_0
  10
712.2887
  20
482.41138
  0
VERTEX
  5
2f6
  8
Layer_0
  10
712.27502
  20
482.27536
  0
VERTEX
  5
2f7
  8
Layer_0
  10
712.2887
  20
482.13934
  0
VERTEX
  5
2f8
  8
Layer_0
  10
712.328
  20
482.01263
  0
VERTEX
  5
2f9
  8
Layer_0
  10
712.39026
  20
481.89795
  0
VERTEX
  5
2fa
  8
Layer_0
  10
712.47266
  20
481.79807
  0
VERTEX
  5
2fb
  8
Layer_0
  10
712.57263
  20
481.71564
  0
VERTEX
  5
2fc
  8
Layer_0
  10
712.68726
  20
481.65341
  0
VERTEX
  5
2fd
  8
Layer_0
  10
712.81396
  20
481.61407
  0
VERTEX
  5
2fe
  8
Layer_0
  10
712.94995
  20
481.60037
  0
SEQEND
  0
POLYLINE
  5
300
  8
Layer_0
  62
0
  66
1
  10
0
  20
0
  30
0
  0
VERTEX
  5
300
  8
Layer_0
  10
715.65002
  20
481.60037
  0
VERTEX
  5
301
  8
Layer_0
  10
715.78601
  20
481.61407
  0
VERTEX
  5
302
  8
Layer_0
  10
715.91272
  20
481.65341
  0
VERTEX
  5
303
  8
Layer_0
  10
716.02734
  20
481.71564
  0
VERTEX
  5
304
  8
Layer_0
  10
716.12732
  20
481.79807
  0
VERTEX
  5
305
  8
Layer_0
  10
716.20972
  20
481.89795
  0
VERTEX
  5
306
  8
Layer_0
  10
716.27197
  20
482.01263
  0
VERTEX
  5
307
  8
Layer_0
  10
716.31128
  20
482.13934
  0
VERTEX
  5
308
  8
Layer_0
  10
716.32495
  20
482.27536
  0
VERTEX
  5
309
  8
Layer_0
  10
716.31128
  20
482.41138
  0
VERTEX
  5
30a
  8
Layer_0
  10
716.27197
  20
482.53809
  0
VERTEX
  5
30b
  8
Layer_0
  10
716.20972
  20
482.65277
  0
VERTEX
  5
30c
  8
Layer_0
  10
716.12732
  20
482.75266
  0
VERTEX
  5
30d
  8
Layer_0
  10
716.02734
  20
482.83508
  0
VERTEX
  5
30e
  8
Layer_0
  10
715.91272
  20
482.89731
  0
VERTEX
  5
30f
  8
Layer_0
  10
715.78601
  20
482.93665
  0
VERTEX
  5
310
  8
Layer_0
  10
715.65002
  20
482.95035
  0
SEQEND
  0
POLYLINE
  5
312
  8
Layer_0
  62
0
  66
1
  10
0
  20
0
  30
0
  0
VERTEX
  5
312
  8
Layer_0
  10
715.65002
  20
493.47534
  0
VERTEX
  5
313
  8
Layer_0
  10
712.94995
  20
493.47534
  0
SEQEND
  0
POLYLINE
  5
315
  8
Layer_0
  62
0
  66
1
  10
0
  20
0
  30
0
  0
VERTEX
  5
315
  8
Layer_0
  10
712.94995
  20
494.15033
  0
VERTEX
  5
316
  8
Layer_0
  10
712.81396
  20
494.1366
  0
VERTEX
  5
317
  8
Layer_0
  10
712.68726
  20
494.09729
  0
VERTEX
  5
318
  8
Layer_0
  10
712.57263
  20
494.03503
  0
VERTEX
  5
319
  8
Layer_0
  10
712.47266
  20
493.95264
  0
VERTEX
  5
31a
  8
Layer_0
  10
712.39026
  20
493.85275
  0
VERTEX
  5
31b
  8
Layer_0
  10
712.328
  20
493.7381
  0
VERTEX
  5
31c
  8
Layer_0
  10
712.2887
  20
493.61139
  0
VERTEX
  5
31d
  8
Layer_0
  10
712.27502
  20
493.47534
  0
VERTEX
  5
31e
  8
Layer_0
  10
712.2887
  20
493.33929
  0
VERTEX
  5
31f
  8
Layer_0
  10
712.328
  20
493.21259
  0
VERTEX
  5
320
  8
Layer_0
  10
712.39026
  20
493.09793
  0
VERTEX
  5
321
  8
Layer_0
  10
712.47266
  20
492.99805
  0
VERTEX
  5
322
  8
Layer_0
  10
712.57263
  20
492.91565
  0
VERTEX
  5
323
  8
Layer_0
  10
712.68726
  20
492.85339
  0
VERTEX
  5
324
  8
Layer_0
  10
712.81396
  20
492.81409
  0
VERTEX
  5
325
  8
Layer_0
  10
712.94995
  20
492.80035
  0
SEQEND
  0
POLYLINE
  5
327
  8
Layer_0
  62
0
  66
1
  10
0
  20
0
  30
0
  0
VERTEX
  5
327
  8
Layer_0
  10
715.65002
  20
492.80035
  0
VERTEX
  5
328
  8
Layer_0
  10
715.78601
  20
492.81409
  0
VERTEX
  5
329
  8
Layer_0
  10
715.91272
  20
492.85339
  0
VERTEX
  5
32a
  8
Layer_0
  10
716.02734
  20
492.91565
  0
VERTEX
  5
32b
  8
Layer_0
  10
716.12732
  20
492.99805
  0
VERTEX
  5
32c
  8
Layer_0
  10
716.20972
  20
493.09793
  0
VERTEX
  5
32d
  8
Layer_0
  10
716.27197
  20
493.21259
  0
VERTEX
  5
32e
  8
Layer_0
  10
716.31128
  20
493.33929
  0
VERTEX
  5
32f
  8
Layer_0
  10
716.32495
  20
493.47534
  0
VERTEX
  5
330
  8
Layer_0
  10
716.31128
  20
493.61139
  0
VERTEX
  5
331
  8
Layer_0
  10
716.27197
  20
493.7381
  0
VERTEX
  5
332
  8
Layer_0
  10
716.20972
  20
493.85275
  0
VERTEX
  5
333
  8
Layer_0
  10
716.12732
  20
493.95264
  0
VERTEX
  5
334
  8
Layer_0
  10
716.02734
  20
494.03503
  0
VERTEX
  5
335
  8
Layer_0
  10
715.91272
  20
494.09729
  0
VERTEX
  5
336
  8
Layer_0
  10
715.78601
  20
494.1366
  0
VERTEX
  5
337
  8
Layer_0
  10
715.65002
  20
494.15033
  0
SEQEND
  0
POLYLINE
  5
339
  8
Layer_0
  62
0
  66
1
  10
0
  20
0
  30
0
  0
VERTEX
  5
339
  8
Layer_0
  10
744.57495
  20
462.47537
  0
VERTEX
  5
33a
  8
Layer_0
  10
741.17499
  20
462.47537
  0
SEQEND
  0
POLYLINE
  5
33c
  8
Layer_0
  62
0
  66
1
  10
0
  20
0
  30
0
  0
VERTEX
  5
33c
  8
Layer_0
  10
741.17499
  20
462.50037
  0
VERTEX
  5
33d
  8
Layer_0
  10
741.15729
  20
462.49304
  0
VERTEX
  5
33e
  8
Layer_0
  10
741.15002
  20
462.47534
  0
VERTEX
  5
33f
  8
Layer_0
  10
741.15729
  20
462.45764
  0
VERTEX
  5
340
  8
Layer_0
  10
741.17499
  20
462.45035
  0
SEQEND
  0
POLYLINE
  5
342
  8
Layer_0
  62
0
  66
1
  10
0
  20
0
  30
0
  0
VERTEX
  5
342
  8
Layer_0
  10
744.57495
  20
462.45035
  0
VERTEX
  5
343
  8
Layer_0
  10
744.59265
  20
462.45764
  0
VERTEX
  5
344
  8
Layer_0
  10
744.59998
  20
462.47534
  0
VERTEX
  5
345
  8
Layer_0
  10
744.59265
  20
462.49304
  0
VERTEX
  5
346
  8
Layer_0
  10
744.57495
  20
462.50037
  0
SEQEND
  0
POLYLINE
  5
348
  8
Layer_0
  62
0
  66
1
  10
0
  20
0
  30
0
  0
VERTEX
  5
348
  8
Layer_0
  10
741.17499
  20
462.47537
  0
VERTEX
  5
349
  8
Layer_0
  10
741.17499
  20
463.97537
  0
SEQEND
  0
POLYLINE
  5
34b
  8
Layer_0
  62
0
  66
1
  10
0
  20
0
  30
0
  0
VERTEX
  5
34b
  8
Layer_0
  10
741.19995
  20
463.97537
  0
VERTEX
  5
34c
  8
Layer_0
  10
741.19269
  20
463.99304
  0
VERTEX
  5
34d
  8
Layer_0
  10
741.17499
  20
464.00037
  0
VERTEX
  5
34e
  8
Layer_0
  10
741.15729
  20
463.99304
  0
VERTEX
  5
34f
  8
Layer_0
  10
741.14996
  20
463.97537
  0
SEQEND
  0
POLYLINE
  5
351
  8
Layer_0
  62
0
  66
1
  10
0
  20
0
  30
0
  0
VERTEX
  5
351
  8
Layer_0
  10
741.14996
  20
462.47537
  0
VERTEX
  5
352
  8
Layer_0
  10
741.15729
  20
462.45764
  0
VERTEX
  5
353
  8
Layer_0
  10
741.17499
  20
462.45035
  0
VERTEX
  5
354
  8
Layer_0
  10
741.19269
  20
462.45764
  0
VERTEX
  5
355
  8
Layer_0
  10
741.19995
  20
462.47537
  0
SEQEND
  0
POLYLINE
  5
357
  8
Layer_0
  62
0
  66
1
  10
0
  20
0
  30
0
  0
VERTEX
  5
357
  8
Layer_0
  10
741.17499
  20
463.97537
  0
VERTEX
  5
358
  8
Layer_0
  10
744.57495
  20
463.97537
  0
SEQEND
  0
POLYLINE
  5
35a
  8
Layer_0
  62
0
  66
1
  10
0
  20
0
  30
0
  0
VERTEX
  5
35a
  8
Layer_0
  10
744.57495
  20
463.95035
  0
VERTEX
  5
35b
  8
Layer_0
  10
744.59265
  20
463.95764
  0
VERTEX
  5
35c
  8
Layer_0
  10
744.59998
  20
463.97534
  0
VERTEX
  5
35d
  8
Layer_0
  10
744.59265
  20
463.99304
  0
VERTEX
  5
35e
  8
Layer_0
  10
744.57495
  20
464.00037
  0
SEQEND
  0
POLYLINE
  5
360
  8
Layer_0
  62
0
  66
1
  10
0
  20
0
  30
0
  0
VERTEX
  5
360
  8
Layer_0
  10
741.17499
  20
464.00037
  0
VERTEX
  5
361
  8
Layer_0
  10
741.15729
  20
463.99304
  0
VERTEX
  5
362
  8
Layer_0
  10
741.15002
  20
463.97534
  0
VERTEX
  5
363
  8
Layer_0
  10
741.15729
  20
463.95764
  0
VERTEX
  5
364
  8
Layer_0
  10
741.17499
  20
463.95035
  0
SEQEND
  0
POLYLINE
  5
366
  8
Layer_0
  62
0
  66
1
  10
0
  20
0
  30
0
  0
VERTEX
  5
366
  8
Layer_0
  10
744.57495
  20
463.97537
  0
VERTEX
  5
367
  8
Layer_0
  10
744.57495
  20
462.47537
  0
SEQEND
  0
POLYLINE
  5
369
  8
Layer_0
  62
0
  66
1
  10
0
  20
0
  30
0
  0
VERTEX
  5
369
  8
Layer_0
  10
744.54999
  20
462.47537
  0
VERTEX
  5
36a
  8
Layer_0
  10
744.55731
  20
462.4577
  0
VERTEX
  5
36b
  8
Layer_0
  10
744.57495
  20
462.45038
  0
VERTEX
  5
36c
  8
Layer_0
  10
744.59265
  20
462.4577
  0
VERTEX
  5
36d
  8
Layer_0
  10
744.59998
  20
462.47537
  0
SEQEND
  0
POLYLINE
  5
36f
  8
Layer_0
  62
0
  66
1
  10
0
  20
0
  30
0
  0
VERTEX
  5
36f
  8
Layer_0
  10
744.59998
  20
463.97537
  0
VERTEX
  5
370
  8
Layer_0
  10
744.59265
  20
463.99304
  0
VERTEX
  5
371
  8
Layer_0
  10
744.57495
  20
464.00037
  0
VERTEX
  5
372
  8
Layer_0
  10
744.55731
  20
463.99304
  0
VERTEX
  5
373
  8
Layer_0
  10
744.54999
  20
463.97537
  0
SEQEND
  0
POLYLINE
  5
375
  8
Layer_0
  62
0
  66
1
  10
0
  20
0
  30
0
  0
VERTEX
  5
375
  8
Layer_0
  10
744.57495
  20
475.17535
  0
VERTEX
  5
376
  8
Layer_0
  10
741.17499
  20
475.17535
  0
SEQEND
  0
POLYLINE
  5
378
  8
Layer_0
  62
0
  66
1
  10
0
  20
0
  30
0
  0
VERTEX
  5
378
  8
Layer_0
  10
741.17499
  20
475.20038
  0
VERTEX
  5
379
  8
Layer_0
  10
741.15729
  20
475.19305
  0
VERTEX
  5
37a
  8
Layer_0
  10
741.15002
  20
475.17535
  0
VERTEX
  5
37b
  8
Layer_0
  10
741.15729
  20
475.15765
  0
VERTEX
  5
37c
  8
Layer_0
  10
741.17499
  20
475.15036
  0
SEQEND
  0
POLYLINE
  5
37e
  8
Layer_0
  62
0
  66
1
  10
0
  20
0
  30
0
  0
VERTEX
  5
37e
  8
Layer_0
  10
744.57495
  20
475.15036
  0
VERTEX
  5
37f
  8
Layer_0
  10
744.59265
  20
475.15765
  0
VERTEX
  5
380
  8
Layer_0
  10
744.59998
  20
475.17535
  0
VERTEX
  5
381
  8
Layer_0
  10
744.59265
  20
475.19305
  0
VERTEX
  5
382
  8
Layer_0
  10
744.57495
  20
475.20038
  0
SEQEND
  0
POLYLINE
  5
384
  8
Layer_0
  62
0
  66
1
  10
0
  20
0
  30
0
  0
VERTEX
  5
384
  8
Layer_0
  10
741.17499
  20
475.17535
  0
VERTEX
  5
385
  8
Layer_0
  10
741.17499
  20
473.67535
  0
SEQEND
  0
POLYLINE
  5
387
  8
Layer_0
  62
0
  66
1
  10
0
  20
0
  30
0
  0
VERTEX
  5
387
  8
Layer_0
  10
741.14996
  20
473.67535
  0
VERTEX
  5
388
  8
Layer_0
  10
741.15729
  20
473.65765
  0
VERTEX
  5
389
  8
Layer_0
  10
741.17499
  20
473.65036
  0
VERTEX
  5
38a
  8
Layer_0
  10
741.19269
  20
473.65765
  0
VERTEX
  5
38b
  8
Layer_0
  10
741.19995
  20
473.67535
  0
SEQEND
  0
POLYLINE
  5
38d
  8
Layer_0
  62
0
  66
1
  10
0
  20
0
  30
0
  0
VERTEX
  5
38d
  8
Layer_0
  10
741.19995
  20
475.17535
  0
VERTEX
  5
38e
  8
Layer_0
  10
741.19269
  20
475.19305
  0
VERTEX
  5
38f
  8
Layer_0
  10
741.17499
  20
475.20038
  0
VERTEX
  5
390
  8
Layer_0
  10
741.15729
  20
475.19305
  0
VERTEX
  5
391
  8
Layer_0
  10
741.14996
  20
475.17535
  0
SEQEND
  0
POLYLINE
  5
393
  8
Layer_0
  62
0
  66
1
  10
0
  20
0
  30
0
  0
VERTEX
  5
393
  8
Layer_0
  10
741.17499
  20
473.67535
  0
VERTEX
  5
394
  8
Layer_0
  10
744.57495
  20
473.67535
  0
SEQEND
  0
POLYLINE
  5
396
  8
Layer_0
  62
0
  66
1
  10
0
  20
0
  30
0
  0
VERTEX
  5
396
  8
Layer_0
  10
744.57495
  20
473.65036
  0
VERTEX
  5
397
  8
Layer_0
  10
744.59265
  20
473.65765
  0
VERTEX
  5
398
  8
Layer_0
  10
744.59998
  20
473.67535
  0
VERTEX
  5
399
  8
Layer_0
  10
744.59265
  20
473.69305
  0
VERTEX
  5
39a
  8
Layer_0
  10
744.57495
  20
473.70038
  0
SEQEND
  0
POLYLINE
  5
39c
  8
Layer_0
  62
0
  66
1
  10
0
  20
0
  30
0
  0
VERTEX
  5
39c
  8
Layer_0
  10
741.17499
  20
473.70038
  0
VERTEX
  5
39d
  8
Layer_0
  10
741.15729
  20
473.69305
  0
VERTEX
  5
39e
  8
Layer_0
  10
741.15002
  20
473.67535
  0
VERTEX
  5
39f
  8
Layer_0
  10
741.15729
  20
473.65765
  0
VERTEX
  5
3a0
  8
Layer_0
  10
741.17499
  20
473.65036
  0
SEQEND
  0
POLYLINE
  5
3a2
  8
Layer_0
  62
0
  66
1
  10
0
  20
0
  30
0
  0
VERTEX
  5
3a2
  8
Layer_0
  10
744.57495
  20
473.67535
  0
VERTEX
  5
3a3
  8
Layer_0
  10
744.57495
  20
475.17535
  0
SEQEND
  0
POLYLINE
  5
3a5
  8
Layer_0
  62
0
  66
1
  10
0
  20
0
  30
0
  0
VERTEX
  5
3a5
  8
Layer_0
  10
744.59998
  20
475.17535
  0
VERTEX
  5
3a6
  8
Layer_0
  10
744.59265
  20
475.19305
  0
VERTEX
  5
3a7
  8
Layer_0
  10
744.57495
  20
475.20035
  0
VERTEX
  5
3a8
  8
Layer_0
  10
744.55731
  20
475.19305
  0
VERTEX
  5
3a9
  8
Layer_0
  10
744.54999
  20
475.17535
  0
SEQEND
  0
POLYLINE
  5
3ab
  8
Layer_0
  62
0
  66
1
  10
0
  20
0
  30
0
  0
VERTEX
  5
3ab
  8
Layer_0
  10
744.54999
  20
473.67535
  0
VERTEX
  5
3ac
  8
Layer_0
  10
744.55731
  20
473.65765
  0
VERTEX
  5
3ad
  8
Layer_0
  10
744.57495
  20
473.65036
  0
VERTEX
  5
3ae
  8
Layer_0
  10
744.59265
  20
473.65765
  0
VERTEX
  5
3af
  8
Layer_0
  10
744.59998
  20
473.67535
  0
SEQEND
  0
POLYLINE
  5
3b1
  8
Layer_0
  62
0
  66
1
  10
0
  20
0
  30
0
  0
VERTEX
  5
3b1
  8
Layer_0
  10
744.22498
  20
463.22537
  0
VERTEX
  5
3b2
  8
Layer_0
  10
741.52496
  20
463.22537
  0
SEQEND
  0
POLYLINE
  5
3b4
  8
Layer_0
  62
0
  66
1
  10
0
  20
0
  30
0
  0
VERTEX
  5
3b4
  8
Layer_0
  10
741.52496
  20
463.90036
  0
VERTEX
  5
3b5
  8
Layer_0
  10
741.38892
  20
463.88666
  0
VERTEX
  5
3b6
  8
Layer_0
  10
741.26221
  20
463.84732
  0
VERTEX
  5
3b7
  8
Layer_0
  10
741.14758
  20
463.7851
  0
VERTEX
  5
3b8
  8
Layer_0
  10
741.04767
  20
463.70267
  0
VERTEX
  5
3b9
  8
Layer_0
  10
740.96527
  20
463.60278
  0
VERTEX
  5
3ba
  8
Layer_0
  10
740.90302
  20
463.4881
  0
VERTEX
  5
3bb
  8
Layer_0
  10
740.86371
  20
463.36139
  0
VERTEX
  5
3bc
  8
Layer_0
  10
740.84998
  20
463.22537
  0
VERTEX
  5
3bd
  8
Layer_0
  10
740.86371
  20
463.08936
  0
VERTEX
  5
3be
  8
Layer_0
  10
740.90302
  20
462.96265
  0
VERTEX
  5
3bf
  8
Layer_0
  10
740.96527
  20
462.84796
  0
VERTEX
  5
3c0
  8
Layer_0
  10
741.04767
  20
462.74808
  0
VERTEX
  5
3c1
  8
Layer_0
  10
741.14758
  20
462.66565
  0
VERTEX
  5
3c2
  8
Layer_0
  10
741.26221
  20
462.60342
  0
VERTEX
  5
3c3
  8
Layer_0
  10
741.38892
  20
462.56409
  0
VERTEX
  5
3c4
  8
Layer_0
  10
741.52496
  20
462.55038
  0
SEQEND
  0
POLYLINE
  5
3c6
  8
Layer_0
  62
0
  66
1
  10
0
  20
0
  30
0
  0
VERTEX
  5
3c6
  8
Layer_0
  10
744.22498
  20
462.55038
  0
VERTEX
  5
3c7
  8
Layer_0
  10
744.36102
  20
462.56409
  0
VERTEX
  5
3c8
  8
Layer_0
  10
744.48767
  20
462.60342
  0
VERTEX
  5
3c9
  8
Layer_0
  10
744.60236
  20
462.66565
  0
VERTEX
  5
3ca
  8
Layer_0
  10
744.70227
  20
462.74808
  0
VERTEX
  5
3cb
  8
Layer_0
  10
744.78467
  20
462.84796
  0
VERTEX
  5
3cc
  8
Layer_0
  10
744.84692
  20
462.96265
  0
VERTEX
  5
3cd
  8
Layer_0
  10
744.88623
  20
463.08936
  0
VERTEX
  5
3ce
  8
Layer_0
  10
744.89996
  20
463.22537
  0
VERTEX
  5
3cf
  8
Layer_0
  10
744.88623
  20
463.36139
  0
VERTEX
  5
3d0
  8
Layer_0
  10
744.84692
  20
463.4881
  0
VERTEX
  5
3d1
  8
Layer_0
  10
744.78467
  20
463.60278
  0
VERTEX
  5
3d2
  8
Layer_0
  10
744.70227
  20
463.70267
  0
VERTEX
  5
3d3
  8
Layer_0
  10
744.60236
  20
463.7851
  0
VERTEX
  5
3d4
  8
Layer_0
  10
744.48767
  20
463.84732
  0
VERTEX
  5
3d5
  8
Layer_0
  10
744.36102
  20
463.88666
  0
VERTEX
  5
3d6
  8
Layer_0
  10
744.22498
  20
463.90036
  0
SEQEND
  0
POLYLINE
  5
3d8
  8
Layer_0
  62
0
  66
1
  10
0
  20
0
  30
0
  0
VERTEX
  5
3d8
  8
Layer_0
  10
744.22498
  20
474.42535
  0
VERTEX
  5
3d9
  8
Layer_0
  10
741.52496
  20
474.42535
  0
SEQEND
  0
POLYLINE
  5
3db
  8
Layer_0
  62
0
  66
1
  10
0
  20
0
  30
0
  0
VERTEX
  5
3db
  8
Layer_0
  10
741.52496
  20
475.10034
  0
VERTEX
  5
3dc
  8
Layer_0
  10
741.38892
  20
475.08661
  0
VERTEX
  5
3dd
  8
Layer_0
  10
741.26221
  20
475.0473
  0
VERTEX
  5
3de
  8
Layer_0
  10
741.14758
  20
474.98505
  0
VERTEX
  5
3df
  8
Layer_0
  10
741.04767
  20
474.90265
  0
VERTEX
  5
3e0
  8
Layer_0
  10
740.96527
  20
474.80276
  0
VERTEX
  5
3e1
  8
Layer_0
  10
740.90302
  20
474.68811
  0
VERTEX
  5
3e2
  8
Layer_0
  10
740.86371
  20
474.5614
  0
VERTEX
  5
3e3
  8
Layer_0
  10
740.84998
  20
474.42535
  0
VERTEX
  5
3e4
  8
Layer_0
  10
740.86371
  20
474.28931
  0
VERTEX
  5
3e5
  8
Layer_0
  10
740.90302
  20
474.1626
  0
VERTEX
  5
3e6
  8
Layer_0
  10
740.96527
  20
474.04794
  0
VERTEX
  5
3e7
  8
Layer_0
  10
741.04767
  20
473.94806
  0
VERTEX
  5
3e8
  8
Layer_0
  10
741.14758
  20
473.86566
  0
VERTEX
  5
3e9
  8
Layer_0
  10
741.26221
  20
473.80341
  0
VERTEX
  5
3ea
  8
Layer_0
  10
741.38892
  20
473.7641
  0
VERTEX
  5
3eb
  8
Layer_0
  10
741.52496
  20
473.75037
  0
SEQEND
  0
POLYLINE
  5
3ed
  8
Layer_0
  62
0
  66
1
  10
0
  20
0
  30
0
  0
VERTEX
  5
3ed
  8
Layer_0
  10
744.22498
  20
473.75037
  0
VERTEX
  5
3ee
  8
Layer_0
  10
744.36102
  20
473.7641
  0
VERTEX
  5
3ef
  8
Layer_0
  10
744.48767
  20
473.80341
  0
VERTEX
  5
3f0
  8
Layer_0
  10
744.60236
  20
473.86566
  0
VERTEX
  5
3f1
  8
Layer_0
  10
744.70227
  20
473.94806
  0
VERTEX
  5
3f2
  8
Layer_0
  10
744.78467
  20
474.04794
  0
VERTEX
  5
3f3
  8
Layer_0
  10
744.84692
  20
474.1626
  0
VERTEX
  5
3f4
  8
Layer_0
  10
744.88623
  20
474.28931
  0
VERTEX
  5
3f5
  8
Layer_0
  10
744.89996
  20
474.42535
  0
VERTEX
  5
3f6
  8
Layer_0
  10
744.88623
  20
474.5614
  0
VERTEX
  5
3f7
  8
Layer_0
  10
744.84692
  20
474.68811
  0
VERTEX
  5
3f8
  8
Layer_0
  10
744.78467
  20
474.80276
  0
VERTEX
  5
3f9
  8
Layer_0
  10
744.70227
  20
474.90265
  0
VERTEX
  5
3fa
  8
Layer_0
  10
744.60236
  20
474.98505
  0
VERTEX
  5
3fb
  8
Layer_0
  10
744.48767
  20
475.0473
  0
VERTEX
  5
3fc
  8
Layer_0
  10
744.36102
  20
475.08661
  0
VERTEX
  5
3fd
  8
Layer_0
  10
744.22498
  20
475.10034
  0
SEQEND
  0
CIRCLE
  5
3ff
  8
Layer_0
  62
0
  10
552.375
  20
487.87537
  30
0
  40
2
  0
CIRCLE
  5
3ff
  8
Layer_0
  62
0
  10
571.42499
  20
487.87537
  30
0
  40
2
  0
CIRCLE
  5
3ff
  8
Layer_0
  62
0
  10
590.47498
  20
487.87537
  30
0
  40
2
  0
CIRCLE
  5
3ff
  8
Layer_0
  62
0
  10
609.52496
  20
487.87537
  30
0
  40
2
  0
CIRCLE
  5
3ff
  8
Layer_0
  62
0
  10
628.57495
  20
487.87537
  30
0
  40
2
  0
CIRCLE
  5
3ff
  8
Layer_0
  62
0
  10
742.875
  20
449.77536
  30
0
  40
2
  0
CIRCLE
  5
3ff
  8
Layer_0
  62
0
  10
552.375
  20
468.82538
  30
0
  40
2
  0
CIRCLE
  5
3ff
  8
Layer_0
  62
0
  10
571.42499
  20
468.82538
  30
0
  40
2
  0
CIRCLE
  5
3ff
  8
Layer_0
  62
0
  10
590.47498
  20
468.82538
  30
0
  40
2
  0
CIRCLE
  5
3ff
  8
Layer_0
  62
0
  10
609.52496
  20
468.82538
  30
0
  40
2
  0
CIRCLE
  5
3ff
  8
Layer_0
  62
0
  10
628.57495
  20
468.82538
  30
0
  40
2
  0
CIRCLE
  5
3ff
  8
Layer_0
  62
0
  10
742.875
  20
411.67535
  30
0
  40
2
  0
CIRCLE
  5
3ff
  8
Layer_0
  62
0
  10
723.82495
  20
411.67535
  30
0
  40
2
  0
CIRCLE
  5
3ff
  8
Layer_0
  62
0
  10
704.77496
  20
411.67535
  30
0
  40
2
  0
CIRCLE
  5
3ff
  8
Layer_0
  62
0
  10
685.72498
  20
411.67535
  30
0
  40
2
  0
CIRCLE
  5
3ff
  8
Layer_0
  62
0
  10
666.67499
  20
411.67535
  30
0
  40
2
  0
CIRCLE
  5
3ff
  8
Layer_0
  62
0
  10
552.375
  20
449.77536
  30
0
  40
2
  0
CIRCLE
  5
3ff
  8
Layer_0
  62
0
  10
571.42499
  20
449.77536
  30
0
  40
2
  0
CIRCLE
  5
3ff
  8
Layer_0
  62
0
  10
590.47498
  20
449.77536
  30
0
  40
2
  0
CIRCLE
  5
3ff
  8
Layer_0
  62
0
  10
609.52496
  20
449.77536
  30
0
  40
2
  0
CIRCLE
  5
3ff
  8
Layer_0
  62
0
  10
628.57495
  20
449.77536
  30
0
  40
2
  0
CIRCLE
  5
3ff
  8
Layer_0
  62
0
  10
647.625
  20
449.77536
  30
0
  40
2
  0
CIRCLE
  5
3ff
  8
Layer_0
  62
0
  10
666.67499
  20
449.77536
  30
0
  40
2
  0
CIRCLE
  5
3ff
  8
Layer_0
  62
0
  10
685.72498
  20
449.77536
  30
0
  40
2
  0
CIRCLE
  5
3ff
  8
Layer_0
  62
0
  10
704.77496
  20
449.77536
  30
0
  40
2
  0
CIRCLE
  5
3ff
  8
Layer_0
  62
0
  10
723.82495
  20
449.77536
  30
0
  40
2
  0
CIRCLE
  5
3ff
  8
Layer_0
  62
0
  10
504.75
  20
430.72537
  30
0
  40
2
  0
CIRCLE
  5
3ff
  8
Layer_0
  62
0
  10
523.79999
  20
430.72537
  30
0
  40
2
  0
CIRCLE
  5
3ff
  8
Layer_0
  62
0
  10
542.84998
  20
430.72537
  30
0
  40
2
  0
CIRCLE
  5
3ff
  8
Layer_0
  62
0
  10
580.94995
  20
430.72537
  30
0
  40
2
  0
CIRCLE
  5
3ff
  8
Layer_0
  62
0
  10
600
  20
430.72537
  30
0
  40
2
  0
CIRCLE
  5
3ff
  8
Layer_0
  62
0
  10
638.09998
  20
430.72537
  30
0
  40
2
  0
CIRCLE
  5
3ff
  8
Layer_0
  62
0
  10
657.14996
  20
430.72537
  30
0
  40
2
  0
CIRCLE
  5
3ff
  8
Layer_0
  62
0
  10
676.19995
  20
430.72537
  30
0
  40
2
  0
CIRCLE
  5
3ff
  8
Layer_0
  62
0
  10
714.29999
  20
430.72537
  30
0
  40
2
  0
CIRCLE
  5
3ff
  8
Layer_0
  62
0
  10
733.34998
  20
430.72537
  30
0
  40
2
  0
CIRCLE
  5
3ff
  8
Layer_0
  62
0
  10
495.22498
  20
411.67535
  30
0
  40
2
  0
CIRCLE
  5
3ff
  8
Layer_0
  62
0
  10
514.27496
  20
411.67535
  30
0
  40
2
  0
CIRCLE
  5
3ff
  8
Layer_0
  62
0
  10
533.32495
  20
411.67535
  30
0
  40
2
  0
CIRCLE
  5
3ff
  8
Layer_0
  62
0
  10
552.375
  20
411.67535
  30
0
  40
2
  0
CIRCLE
  5
3ff
  8
Layer_0
  62
0
  10
571.42499
  20
411.67535
  30
0
  40
2
  0
CIRCLE
  5
3ff
  8
Layer_0
  62
0
  10
590.47498
  20
411.67535
  30
0
  40
2
  0
CIRCLE
  5
3ff
  8
Layer_0
  62
0
  10
609.52496
  20
411.67535
  30
0
  40
2
  0
CIRCLE
  5
3ff
  8
Layer_0
  62
0
  10
628.57495
  20
411.67535
  30
0
  40
2
  0
CIRCLE
  5
3ff
  8
Layer_0
  62
0
  10
647.625
  20
411.67535
  30
0
  40
2
  0
POLYLINE
  5
3ff
  8
Layer_0
  62
0
  70
1
  66
1
  10
0
  20
0
  30
0
  0
VERTEX
  5
3ff
  8
Layer_0
  10
673.02496
  20
492.70535
  0
VERTEX
  5
400
  8
Layer_0
  10
673.21539
  20
492.72455
  0
VERTEX
  5
401
  8
Layer_0
  10
673.39282
  20
492.7796
  0
VERTEX
  5
402
  8
Layer_0
  10
673.55334
  20
492.86673
  0
VERTEX
  5
403
  8
Layer_0
  10
673.69318
  20
492.98212
  0
VERTEX
  5
404
  8
Layer_0
  10
673.80859
  20
493.12198
  0
VERTEX
  5
405
  8
Layer_0
  10
673.89575
  20
493.2825
  0
VERTEX
  5
406
  8
Layer_0
  10
673.95081
  20
493.4599
  0
VERTEX
  5
407
  8
Layer_0
  10
673.96997
  20
493.65036
  0
VERTEX
  5
408
  8
Layer_0
  10
673.95081
  20
493.84082
  0
VERTEX
  5
409
  8
Layer_0
  10
673.89575
  20
494.01822
  0
VERTEX
  5
40a
  8
Layer_0
  10
673.80859
  20
494.17874
  0
VERTEX
  5
40b
  8
Layer_0
  10
673.69318
  20
494.3186
  0
VERTEX
  5
40c
  8
Layer_0
  10
673.55334
  20
494.43399
  0
VERTEX
  5
40d
  8
Layer_0
  10
673.39282
  20
494.52112
  0
VERTEX
  5
40e
  8
Layer_0
  10
673.21539
  20
494.57617
  0
VERTEX
  5
40f
  8
Layer_0
  10
673.02496
  20
494.59537
  0
VERTEX
  5
410
  8
Layer_0
  10
672.83453
  20
494.57617
  0
VERTEX
  5
411
  8
Layer_0
  10
672.6571
  20
494.52112
  0
VERTEX
  5
412
  8
Layer_0
  10
672.49658
  20
494.43399
  0
VERTEX
  5
413
  8
Layer_0
  10
672.35675
  20
494.3186
  0
VERTEX
  5
414
  8
Layer_0
  10
672.24133
  20
494.17874
  0
VERTEX
  5
415
  8
Layer_0
  10
672.15417
  20
494.01822
  0
VERTEX
  5
416
  8
Layer_0
  10
672.09912
  20
493.84082
  0
VERTEX
  5
417
  8
Layer_0
  10
672.07996
  20
493.65036
  0
VERTEX
  5
418
  8
Layer_0
  10
672.09912
  20
493.4599
  0
VERTEX
  5
419
  8
Layer_0
  10
672.15417
  20
493.2825
  0
VERTEX
  5
41a
  8
Layer_0
  10
672.24133
  20
493.12198
  0
VERTEX
  5
41b
  8
Layer_0
  10
672.35675
  20
492.98212
  0
VERTEX
  5
41c
  8
Layer_0
  10
672.49658
  20
492.86673
  0
VERTEX
  5
41d
  8
Layer_0
  10
672.6571
  20
492.7796
  0
VERTEX
  5
41e
  8
Layer_0
  10
672.83453
  20
492.72455
  0
VERTEX
  5
41f
  8
Layer_0
  10
673.02496
  20
492.70535
  0
SEQEND
  0
POLYLINE
  5
421
  8
Layer_0
  62
0
  70
1
  66
1
  10
0
  20
0
  30
0
  0
VERTEX
  5
421
  8
Layer_0
  10
514.27496
  20
420.25534
  0
VERTEX
  5
422
  8
Layer_0
  10
514.46539
  20
420.27454
  0
VERTEX
  5
423
  8
Layer_0
  10
514.64282
  20
420.32959
  0
VERTEX
  5
424
  8
Layer_0
  10
514.80334
  20
420.41672
  0
VERTEX
  5
425
  8
Layer_0
  10
514.94318
  20
420.5321
  0
VERTEX
  5
426
  8
Layer_0
  10
515.05859
  20
420.67197
  0
VERTEX
  5
427
  8
Layer_0
  10
515.14575
  20
420.83249
  0
VERTEX
  5
428
  8
Layer_0
  10
515.20081
  20
421.00989
  0
VERTEX
  5
429
  8
Layer_0
  10
515.21997
  20
421.20035
  0
VERTEX
  5
42a
  8
Layer_0
  10
515.20081
  20
421.39081
  0
VERTEX
  5
42b
  8
Layer_0
  10
515.14575
  20
421.56821
  0
VERTEX
  5
42c
  8
Layer_0
  10
515.05859
  20
421.72873
  0
VERTEX
  5
42d
  8
Layer_0
  10
514.94318
  20
421.86859
  0
VERTEX
  5
42e
  8
Layer_0
  10
514.80334
  20
421.98398
  0
VERTEX
  5
42f
  8
Layer_0
  10
514.64282
  20
422.07111
  0
VERTEX
  5
430
  8
Layer_0
  10
514.46539
  20
422.12616
  0
VERTEX
  5
431
  8
Layer_0
  10
514.27496
  20
422.14536
  0
VERTEX
  5
432
  8
Layer_0
  10
514.08453
  20
422.12616
  0
VERTEX
  5
433
  8
Layer_0
  10
513.9071
  20
422.07111
  0
VERTEX
  5
434
  8
Layer_0
  10
513.74658
  20
421.98398
  0
VERTEX
  5
435
  8
Layer_0
  10
513.60675
  20
421.86859
  0
VERTEX
  5
436
  8
Layer_0
  10
513.49133
  20
421.72873
  0
VERTEX
  5
437
  8
Layer_0
  10
513.40417
  20
421.56821
  0
VERTEX
  5
438
  8
Layer_0
  10
513.34912
  20
421.39081
  0
VERTEX
  5
439
  8
Layer_0
  10
513.32996
  20
421.20035
  0
VERTEX
  5
43a
  8
Layer_0
  10
513.34912
  20
421.00989
  0
VERTEX
  5
43b
  8
Layer_0
  10
513.40417
  20
420.83249
  0
VERTEX
  5
43c
  8
Layer_0
  10
513.49133
  20
420.67197
  0
VERTEX
  5
43d
  8
Layer_0
  10
513.60675
  20
420.5321
  0
VERTEX
  5
43e
  8
Layer_0
  10
513.74658
  20
420.41672
  0
VERTEX
  5
43f
  8
Layer_0
  10
513.9071
  20
420.32959
  0
VERTEX
  5
440
  8
Layer_0
  10
514.08453
  20
420.27454
  0
VERTEX
  5
441
  8
Layer_0
  10
514.27496
  20
420.25534
  0
SEQEND
  0
POLYLINE
  5
443
  8
Layer_0
  62
0
  70
1
  66
1
  10
0
  20
0
  30
0
  0
VERTEX
  5
443
  8
Layer_0
  10
542.84998
  20
439.30536
  0
VERTEX
  5
444
  8
Layer_0
  10
543.04041
  20
439.32455
  0
VERTEX
  5
445
  8
Layer_0
  10
543.21777
  20
439.37961
  0
VERTEX
  5
446
  8
Layer_0
  10
543.3783
  20
439.46674
  0
VERTEX
  5
447
  8
Layer_0
  10
543.51819
  20
439.58215
  0
VERTEX
  5
448
  8
Layer_0
  10
543.63354
  20
439.72202
  0
VERTEX
  5
449
  8
Layer_0
  10
543.7207
  20
439.88251
  0
VERTEX
  5
44a
  8
Layer_0
  10
543.77576
  20
440.05991
  0
VERTEX
  5
44b
  8
Layer_0
  10
543.79498
  20
440.25037
  0
VERTEX
  5
44c
  8
Layer_0
  10
543.77576
  20
440.44083
  0
VERTEX
  5
44d
  8
Layer_0
  10
543.7207
  20
440.61823
  0
VERTEX
  5
44e
  8
Layer_0
  10
543.63354
  20
440.77872
  0
VERTEX
  5
44f
  8
Layer_0
  10
543.51819
  20
440.91858
  0
VERTEX
  5
450
  8
Layer_0
  10
543.3783
  20
441.034
  0
VERTEX
  5
451
  8
Layer_0
  10
543.21777
  20
441.12112
  0
VERTEX
  5
452
  8
Layer_0
  10
543.04041
  20
441.17618
  0
VERTEX
  5
453
  8
Layer_0
  10
542.84998
  20
441.19537
  0
VERTEX
  5
454
  8
Layer_0
  10
542.65955
  20
441.17618
  0
VERTEX
  5
455
  8
Layer_0
  10
542.48218
  20
441.12112
  0
VERTEX
  5
456
  8
Layer_0
  10
542.32166
  20
441.034
  0
VERTEX
  5
457
  8
Layer_0
  10
542.18176
  20
440.91858
  0
VERTEX
  5
458
  8
Layer_0
  10
542.06641
  20
440.77872
  0
VERTEX
  5
459
  8
Layer_0
  10
541.97925
  20
440.61823
  0
VERTEX
  5
45a
  8
Layer_0
  10
541.92419
  20
440.44083
  0
VERTEX
  5
45b
  8
Layer_0
  10
541.90497
  20
440.25037
  0
VERTEX
  5
45c
  8
Layer_0
  10
541.92419
  20
440.05991
  0
VERTEX
  5
45d
  8
Layer_0
  10
541.97925
  20
439.88251
  0
VERTEX
  5
45e
  8
Layer_0
  10
542.06641
  20
439.72202
  0
VERTEX
  5
45f
  8
Layer_0
  10
542.18176
  20
439.58215
  0
VERTEX
  5
460
  8
Layer_0
  10
542.32166
  20
439.46674
  0
VERTEX
  5
461
  8
Layer_0
  10
542.48218
  20
439.37961
  0
VERTEX
  5
462
  8
Layer_0
  10
542.65955
  20
439.32455
  0
VERTEX
  5
463
  8
Layer_0
  10
542.84998
  20
439.30536
  0
SEQEND
  0
POLYLINE
  5
465
  8
Layer_0
  62
0
  70
1
  66
1
  10
0
  20
0
  30
0
  0
VERTEX
  5
465
  8
Layer_0
  10
580.94995
  20
458.35535
  0
VERTEX
  5
466
  8
Layer_0
  10
581.14038
  20
458.37454
  0
VERTEX
  5
467
  8
Layer_0
  10
581.31775
  20
458.4296
  0
VERTEX
  5
468
  8
Layer_0
  10
581.47827
  20
458.51672
  0
VERTEX
  5
469
  8
Layer_0
  10
581.61816
  20
458.63214
  0
VERTEX
  5
46a
  8
Layer_0
  10
581.73352
  20
458.772
  0
VERTEX
  5
46b
  8
Layer_0
  10
581.82068
  20
458.9325
  0
VERTEX
  5
46c
  8
Layer_0
  10
581.87573
  20
459.10989
  0
VERTEX
  5
46d
  8
Layer_0
  10
581.89496
  20
459.30035
  0
VERTEX
  5
46e
  8
Layer_0
  10
581.87573
  20
459.49081
  0
VERTEX
  5
46f
  8
Layer_0
  10
581.82068
  20
459.66821
  0
VERTEX
  5
470
  8
Layer_0
  10
581.73352
  20
459.8287
  0
VERTEX
  5
471
  8
Layer_0
  10
581.61816
  20
459.96857
  0
VERTEX
  5
472
  8
Layer_0
  10
581.47827
  20
460.08398
  0
VERTEX
  5
473
  8
Layer_0
  10
581.31775
  20
460.17111
  0
VERTEX
  5
474
  8
Layer_0
  10
581.14038
  20
460.22617
  0
VERTEX
  5
475
  8
Layer_0
  10
580.94995
  20
460.24536
  0
VERTEX
  5
476
  8
Layer_0
  10
580.75952
  20
460.22617
  0
VERTEX
  5
477
  8
Layer_0
  10
580.58215
  20
460.17111
  0
VERTEX
  5
478
  8
Layer_0
  10
580.42163
  20
460.08398
  0
VERTEX
  5
479
  8
Layer_0
  10
580.28174
  20
459.96857
  0
VERTEX
  5
47a
  8
Layer_0
  10
580.16638
  20
459.8287
  0
VERTEX
  5
47b
  8
Layer_0
  10
580.07922
  20
459.66821
  0
VERTEX
  5
47c
  8
Layer_0
  10
580.02417
  20
459.49081
  0
VERTEX
  5
47d
  8
Layer_0
  10
580.00494
  20
459.30035
  0
VERTEX
  5
47e
  8
Layer_0
  10
580.02417
  20
459.10989
  0
VERTEX
  5
47f
  8
Layer_0
  10
580.07922
  20
458.9325
  0
VERTEX
  5
480
  8
Layer_0
  10
580.16638
  20
458.772
  0
VERTEX
  5
481
  8
Layer_0
  10
580.28174
  20
458.63214
  0
VERTEX
  5
482
  8
Layer_0
  10
580.42163
  20
458.51672
  0
VERTEX
  5
483
  8
Layer_0
  10
580.58215
  20
458.4296
  0
VERTEX
  5
484
  8
Layer_0
  10
580.75952
  20
458.37454
  0
VERTEX
  5
485
  8
Layer_0
  10
580.94995
  20
458.35535
  0
SEQEND
  0
POLYLINE
  5
487
  8
Layer_0
  62
0
  70
1
  66
1
  10
0
  20
0
  30
0
  0
VERTEX
  5
487
  8
Layer_0
  10
580.94995
  20
420.25534
  0
VERTEX
  5
488
  8
Layer_0
  10
581.14038
  20
420.27454
  0
VERTEX
  5
489
  8
Layer_0
  10
581.31775
  20
420.32959
  0
VERTEX
  5
48a
  8
Layer_0
  10
581.47827
  20
420.41672
  0
VERTEX
  5
48b
  8
Layer_0
  10
581.61816
  20
420.5321
  0
VERTEX
  5
48c
  8
Layer_0
  10
581.73352
  20
420.67197
  0
VERTEX
  5
48d
  8
Layer_0
  10
581.82068
  20
420.83249
  0
VERTEX
  5
48e
  8
Layer_0
  10
581.87573
  20
421.00989
  0
VERTEX
  5
48f
  8
Layer_0
  10
581.89496
  20
421.20035
  0
VERTEX
  5
490
  8
Layer_0
  10
581.87573
  20
421.39081
  0
VERTEX
  5
491
  8
Layer_0
  10
581.82068
  20
421.56821
  0
VERTEX
  5
492
  8
Layer_0
  10
581.73352
  20
421.72873
  0
VERTEX
  5
493
  8
Layer_0
  10
581.61816
  20
421.86859
  0
VERTEX
  5
494
  8
Layer_0
  10
581.47827
  20
421.98398
  0
VERTEX
  5
495
  8
Layer_0
  10
581.31775
  20
422.07111
  0
VERTEX
  5
496
  8
Layer_0
  10
581.14038
  20
422.12616
  0
VERTEX
  5
497
  8
Layer_0
  10
580.94995
  20
422.14536
  0
VERTEX
  5
498
  8
Layer_0
  10
580.75952
  20
422.12616
  0
VERTEX
  5
499
  8
Layer_0
  10
580.58215
  20
422.07111
  0
VERTEX
  5
49a
  8
Layer_0
  10
580.42163
  20
421.98398
  0
VERTEX
  5
49b
  8
Layer_0
  10
580.28174
  20
421.86859
  0
VERTEX
  5
49c
  8
Layer_0
  10
580.16638
  20
421.72873
  0
VERTEX
  5
49d
  8
Layer_0
  10
580.07922
  20
421.56821
  0
VERTEX
  5
49e
  8
Layer_0
  10
580.02417
  20
421.39081
  0
VERTEX
  5
49f
  8
Layer_0
  10
580.00494
  20
421.20035
  0
VERTEX
  5
4a0
  8
Layer_0
  10
580.02417
  20
421.00989
  0
VERTEX
  5
4a1
  8
Layer_0
  10
580.07922
  20
420.83249
  0
VERTEX
  5
4a2
  8
Layer_0
  10
580.16638
  20
420.67197
  0
VERTEX
  5
4a3
  8
Layer_0
  10
580.28174
  20
420.5321
  0
VERTEX
  5
4a4
  8
Layer_0
  10
580.42163
  20
420.41672
  0
VERTEX
  5
4a5
  8
Layer_0
  10
580.58215
  20
420.32959
  0
VERTEX
  5
4a6
  8
Layer_0
  10
580.75952
  20
420.27454
  0
VERTEX
  5
4a7
  8
Layer_0
  10
580.94995
  20
420.25534
  0
SEQEND
  0
POLYLINE
  5
4a9
  8
Layer_0
  62
0
  70
1
  66
1
  10
0
  20
0
  30
0
  0
VERTEX
  5
4a9
  8
Layer_0
  10
561.89996
  20
477.40533
  0
VERTEX
  5
4aa
  8
Layer_0
  10
562.09039
  20
477.42453
  0
VERTEX
  5
4ab
  8
Layer_0
  10
562.26782
  20
477.47958
  0
VERTEX
  5
4ac
  8
Layer_0
  10
562.42834
  20
477.56671
  0
VERTEX
  5
4ad
  8
Layer_0
  10
562.56818
  20
477.68213
  0
VERTEX
  5
4ae
  8
Layer_0
  10
562.68359
  20
477.82199
  0
VERTEX
  5
4af
  8
Layer_0
  10
562.77075
  20
477.98248
  0
VERTEX
  5
4b0
  8
Layer_0
  10
562.82581
  20
478.15988
  0
VERTEX
  5
4b1
  8
Layer_0
  10
562.84497
  20
478.35034
  0
VERTEX
  5
4b2
  8
Layer_0
  10
562.82581
  20
478.5408
  0
VERTEX
  5
4b3
  8
Layer_0
  10
562.77075
  20
478.7182
  0
VERTEX
  5
4b4
  8
Layer_0
  10
562.68359
  20
478.87869
  0
VERTEX
  5
4b5
  8
Layer_0
  10
562.56818
  20
479.01855
  0
VERTEX
  5
4b6
  8
Layer_0
  10
562.42834
  20
479.13397
  0
VERTEX
  5
4b7
  8
Layer_0
  10
562.26782
  20
479.2211
  0
VERTEX
  5
4b8
  8
Layer_0
  10
562.09039
  20
479.27615
  0
VERTEX
  5
4b9
  8
Layer_0
  10
561.89996
  20
479.29535
  0
VERTEX
  5
4ba
  8
Layer_0
  10
561.70953
  20
479.27615
  0
VERTEX
  5
4bb
  8
Layer_0
  10
561.5321
  20
479.2211
  0
VERTEX
  5
4bc
  8
Layer_0
  10
561.37158
  20
479.13397
  0
VERTEX
  5
4bd
  8
Layer_0
  10
561.23175
  20
479.01855
  0
VERTEX
  5
4be
  8
Layer_0
  10
561.11633
  20
478.87869
  0
VERTEX
  5
4bf
  8
Layer_0
  10
561.02917
  20
478.7182
  0
VERTEX
  5
4c0
  8
Layer_0
  10
560.97412
  20
478.5408
  0
VERTEX
  5
4c1
  8
Layer_0
  10
560.95496
  20
478.35034
  0
VERTEX
  5
4c2
  8
Layer_0
  10
560.97412
  20
478.15988
  0
VERTEX
  5
4c3
  8
Layer_0
  10
561.02917
  20
477.98248
  0
VERTEX
  5
4c4
  8
Layer_0
  10
561.11633
  20
477.82199
  0
VERTEX
  5
4c5
  8
Layer_0
  10
561.23175
  20
477.68213
  0
VERTEX
  5
4c6
  8
Layer_0
  10
561.37158
  20
477.56671
  0
VERTEX
  5
4c7
  8
Layer_0
  10
561.5321
  20
477.47958
  0
VERTEX
  5
4c8
  8
Layer_0
  10
561.70953
  20
477.42453
  0
VERTEX
  5
4c9
  8
Layer_0
  10
561.89996
  20
477.40533
  0
SEQEND
  0
POLYLINE
  5
4cb
  8
Layer_0
  62
0
  70
1
  66
1
  10
0
  20
0
  30
0
  0
VERTEX
  5
4cb
  8
Layer_0
  10
619.04999
  20
477.40533
  0
VERTEX
  5
4cc
  8
Layer_0
  10
619.24042
  20
477.42453
  0
VERTEX
  5
4cd
  8
Layer_0
  10
619.41785
  20
477.47958
  0
VERTEX
  5
4ce
  8
Layer_0
  10
619.57837
  20
477.56671
  0
VERTEX
  5
4cf
  8
Layer_0
  10
619.7182
  20
477.68213
  0
VERTEX
  5
4d0
  8
Layer_0
  10
619.83362
  20
477.82199
  0
VERTEX
  5
4d1
  8
Layer_0
  10
619.92078
  20
477.98248
  0
VERTEX
  5
4d2
  8
Layer_0
  10
619.97583
  20
478.15988
  0
VERTEX
  5
4d3
  8
Layer_0
  10
619.995
  20
478.35034
  0
VERTEX
  5
4d4
  8
Layer_0
  10
619.97583
  20
478.5408
  0
VERTEX
  5
4d5
  8
Layer_0
  10
619.92078
  20
478.7182
  0
VERTEX
  5
4d6
  8
Layer_0
  10
619.83362
  20
478.87869
  0
VERTEX
  5
4d7
  8
Layer_0
  10
619.7182
  20
479.01855
  0
VERTEX
  5
4d8
  8
Layer_0
  10
619.57837
  20
479.13397
  0
VERTEX
  5
4d9
  8
Layer_0
  10
619.41785
  20
479.2211
  0
VERTEX
  5
4da
  8
Layer_0
  10
619.24042
  20
479.27615
  0
VERTEX
  5
4db
  8
Layer_0
  10
619.04999
  20
479.29535
  0
VERTEX
  5
4dc
  8
Layer_0
  10
618.85956
  20
479.27615
  0
VERTEX
  5
4dd
  8
Layer_0
  10
618.68213
  20
479.2211
  0
VERTEX
  5
4de
  8
Layer_0
  10
618.52161
  20
479.13397
  0
VERTEX
  5
4df
  8
Layer_0
  10
618.38177
  20
479.01855
  0
VERTEX
  5
4e0
  8
Layer_0
  10
618.26636
  20
478.87869
  0
VERTEX
  5
4e1
  8
Layer_0
  10
618.1792
  20
478.7182
  0
VERTEX
  5
4e2
  8
Layer_0
  10
618.12415
  20
478.5408
  0
VERTEX
  5
4e3
  8
Layer_0
  10
618.10498
  20
478.35034
  0
VERTEX
  5
4e4
  8
Layer_0
  10
618.12415
  20
478.15988
  0
VERTEX
  5
4e5
  8
Layer_0
  10
618.1792
  20
477.98248
  0
VERTEX
  5
4e6
  8
Layer_0
  10
618.26636
  20
477.82199
  0
VERTEX
  5
4e7
  8
Layer_0
  10
618.38177
  20
477.68213
  0
VERTEX
  5
4e8
  8
Layer_0
  10
618.52161
  20
477.56671
  0
VERTEX
  5
4e9
  8
Layer_0
  10
618.68213
  20
477.47958
  0
VERTEX
  5
4ea
  8
Layer_0
  10
618.85956
  20
477.42453
  0
VERTEX
  5
4eb
  8
Layer_0
  10
619.04999
  20
477.40533
  0
SEQEND
  0
POLYLINE
  5
4ed
  8
Layer_0
  62
0
  70
1
  66
1
  10
0
  20
0
  30
0
  0
VERTEX
  5
4ed
  8
Layer_0
  10
733.34998
  20
439.30536
  0
VERTEX
  5
4ee
  8
Layer_0
  10
733.54041
  20
439.32455
  0
VERTEX
  5
4ef
  8
Layer_0
  10
733.71783
  20
439.37961
  0
VERTEX
  5
4f0
  8
Layer_0
  10
733.8783
  20
439.46674
  0
VERTEX
  5
4f1
  8
Layer_0
  10
734.01819
  20
439.58215
  0
VERTEX
  5
4f2
  8
Layer_0
  10
734.13361
  20
439.72202
  0
VERTEX
  5
4f3
  8
Layer_0
  10
734.2207
  20
439.88251
  0
VERTEX
  5
4f4
  8
Layer_0
  10
734.27576
  20
440.05991
  0
VERTEX
  5
4f5
  8
Layer_0
  10
734.29498
  20
440.25037
  0
VERTEX
  5
4f6
  8
Layer_0
  10
734.27576
  20
440.44083
  0
VERTEX
  5
4f7
  8
Layer_0
  10
734.2207
  20
440.61823
  0
VERTEX
  5
4f8
  8
Layer_0
  10
734.13361
  20
440.77872
  0
VERTEX
  5
4f9
  8
Layer_0
  10
734.01819
  20
440.91858
  0
VERTEX
  5
4fa
  8
Layer_0
  10
733.8783
  20
441.034
  0
VERTEX
  5
4fb
  8
Layer_0
  10
733.71783
  20
441.12112
  0
VERTEX
  5
4fc
  8
Layer_0
  10
733.54041
  20
441.17618
  0
VERTEX
  5
4fd
  8
Layer_0
  10
733.34998
  20
441.19537
  0
VERTEX
  5
4fe
  8
Layer_0
  10
733.15955
  20
441.17618
  0
VERTEX
  5
4ff
  8
Layer_0
  10
732.98212
  20
441.12112
  0
VERTEX
  5
500
  8
Layer_0
  10
732.82166
  20
441.034
  0
VERTEX
  5
501
  8
Layer_0
  10
732.68176
  20
440.91858
  0
VERTEX
  5
502
  8
Layer_0
  10
732.56635
  20
440.77872
  0
VERTEX
  5
503
  8
Layer_0
  10
732.47925
  20
440.61823
  0
VERTEX
  5
504
  8
Layer_0
  10
732.42419
  20
440.44083
  0
VERTEX
  5
505
  8
Layer_0
  10
732.40497
  20
440.25037
  0
VERTEX
  5
506
  8
Layer_0
  10
732.42419
  20
440.05991
  0
VERTEX
  5
507
  8
Layer_0
  10
732.47925
  20
439.88251
  0
VERTEX
  5
508
  8
Layer_0
  10
732.56635
  20
439.72202
  0
VERTEX
  5
509
  8
Layer_0
  10
732.68176
  20
439.58215
  0
VERTEX
  5
50a
  8
Layer_0
  10
732.82166
  20
439.46674
  0
VERTEX
  5
50b
  8
Layer_0
  10
732.98212
  20
439.37961
  0
VERTEX
  5
50c
  8
Layer_0
  10
733.15955
  20
439.32455
  0
VERTEX
  5
50d
  8
Layer_0
  10
733.34998
  20
439.30536
  0
SEQEND
  0
POLYLINE
  5
50f
  8
Layer_0
  62
0
  70
1
  66
1
  10
0
  20
0
  30
0
  0
VERTEX
  5
50f
  8
Layer_0
  10
695.25
  20
420.25534
  0
VERTEX
  5
510
  8
Layer_0
  10
695.44043
  20
420.27454
  0
VERTEX
  5
511
  8
Layer_0
  10
695.6178
  20
420.32959
  0
VERTEX
  5
512
  8
Layer_0
  10
695.77832
  20
420.41672
  0
VERTEX
  5
513
  8
Layer_0
  10
695.91821
  20
420.5321
  0
VERTEX
  5
514
  8
Layer_0
  10
696.03357
  20
420.67197
  0
VERTEX
  5
515
  8
Layer_0
  10
696.12073
  20
420.83249
  0
VERTEX
  5
516
  8
Layer_0
  10
696.17578
  20
421.00989
  0
VERTEX
  5
517
  8
Layer_0
  10
696.19495
  20
421.20035
  0
VERTEX
  5
518
  8
Layer_0
  10
696.17578
  20
421.39081
  0
VERTEX
  5
519
  8
Layer_0
  10
696.12073
  20
421.56821
  0
VERTEX
  5
51a
  8
Layer_0
  10
696.03357
  20
421.72873
  0
VERTEX
  5
51b
  8
Layer_0
  10
695.91821
  20
421.86859
  0
VERTEX
  5
51c
  8
Layer_0
  10
695.77832
  20
421.98398
  0
VERTEX
  5
51d
  8
Layer_0
  10
695.6178
  20
422.07111
  0
VERTEX
  5
51e
  8
Layer_0
  10
695.44043
  20
422.12616
  0
VERTEX
  5
51f
  8
Layer_0
  10
695.25
  20
422.14536
  0
VERTEX
  5
520
  8
Layer_0
  10
695.05951
  20
422.12616
  0
VERTEX
  5
521
  8
Layer_0
  10
694.88208
  20
422.07111
  0
VERTEX
  5
522
  8
Layer_0
  10
694.72156
  20
421.98398
  0
VERTEX
  5
523
  8
Layer_0
  10
694.58173
  20
421.86859
  0
VERTEX
  5
524
  8
Layer_0
  10
694.46631
  20
421.72873
  0
VERTEX
  5
525
  8
Layer_0
  10
694.37921
  20
421.56821
  0
VERTEX
  5
526
  8
Layer_0
  10
694.32416
  20
421.39081
  0
VERTEX
  5
527
  8
Layer_0
  10
694.30493
  20
421.20035
  0
VERTEX
  5
528
  8
Layer_0
  10
694.32416
  20
421.00989
  0
VERTEX
  5
529
  8
Layer_0
  10
694.37921
  20
420.83249
  0
VERTEX
  5
52a
  8
Layer_0
  10
694.46631
  20
420.67197
  0
VERTEX
  5
52b
  8
Layer_0
  10
694.58173
  20
420.5321
  0
VERTEX
  5
52c
  8
Layer_0
  10
694.72156
  20
420.41672
  0
VERTEX
  5
52d
  8
Layer_0
  10
694.88208
  20
420.32959
  0
VERTEX
  5
52e
  8
Layer_0
  10
695.05951
  20
420.27454
  0
VERTEX
  5
52f
  8
Layer_0
  10
695.25
  20
420.25534
  0
SEQEND
  0
POLYLINE
  5
531
  8
Layer_0
  62
0
  70
1
  66
1
  10
0
  20
0
  30
0
  0
VERTEX
  5
531
  8
Layer_0
  10
695.25
  20
458.35535
  0
VERTEX
  5
532
  8
Layer_0
  10
695.44043
  20
458.37454
  0
VERTEX
  5
533
  8
Layer_0
  10
695.6178
  20
458.4296
  0
VERTEX
  5
534
  8
Layer_0
  10
695.77832
  20
458.51672
  0
VERTEX
  5
535
  8
Layer_0
  10
695.91821
  20
458.63214
  0
VERTEX
  5
536
  8
Layer_0
  10
696.03357
  20
458.772
  0
VERTEX
  5
537
  8
Layer_0
  10
696.12073
  20
458.9325
  0
VERTEX
  5
538
  8
Layer_0
  10
696.17578
  20
459.10989
  0
VERTEX
  5
539
  8
Layer_0
  10
696.19495
  20
459.30035
  0
VERTEX
  5
53a
  8
Layer_0
  10
696.17578
  20
459.49081
  0
VERTEX
  5
53b
  8
Layer_0
  10
696.12073
  20
459.66821
  0
VERTEX
  5
53c
  8
Layer_0
  10
696.03357
  20
459.8287
  0
VERTEX
  5
53d
  8
Layer_0
  10
695.91821
  20
459.96857
  0
VERTEX
  5
53e
  8
Layer_0
  10
695.77832
  20
460.08398
  0
VERTEX
  5
53f
  8
Layer_0
  10
695.6178
  20
460.17111
  0
VERTEX
  5
540
  8
Layer_0
  10
695.44043
  20
460.22617
  0
VERTEX
  5
541
  8
Layer_0
  10
695.25
  20
460.24536
  0
VERTEX
  5
542
  8
Layer_0
  10
695.05951
  20
460.22617
  0
VERTEX
  5
543
  8
Layer_0
  10
694.88208
  20
460.17111
  0
VERTEX
  5
544
  8
Layer_0
  10
694.72156
  20
460.08398
  0
VERTEX
  5
545
  8
Layer_0
  10
694.58173
  20
459.96857
  0
VERTEX
  5
546
  8
Layer_0
  10
694.46631
  20
459.8287
  0
VERTEX
  5
547
  8
Layer_0
  10
694.37921
  20
459.66821
  0
VERTEX
  5
548
  8
Layer_0
  10
694.32416
  20
459.49081
  0
VERTEX
  5
549
  8
Layer_0
  10
694.30493
  20
459.30035
  0
VERTEX
  5
54a
  8
Layer_0
  10
694.32416
  20
459.10989
  0
VERTEX
  5
54b
  8
Layer_0
  10
694.37921
  20
458.9325
  0
VERTEX
  5
54c
  8
Layer_0
  10
694.46631
  20
458.772
  0
VERTEX
  5
54d
  8
Layer_0
  10
694.58173
  20
458.63214
  0
VERTEX
  5
54e
  8
Layer_0
  10
694.72156
  20
458.51672
  0
VERTEX
  5
54f
  8
Layer_0
  10
694.88208
  20
458.4296
  0
VERTEX
  5
550
  8
Layer_0
  10
695.05951
  20
458.37454
  0
VERTEX
  5
551
  8
Layer_0
  10
695.25
  20
458.35535
  0
SEQEND
  0
POLYLINE
  5
553
  8
Layer_0
  62
0
  70
1
  66
1
  10
0
  20
0
  30
0
  0
VERTEX
  5
553
  8
Layer_0
  10
638.09998
  20
420.25534
  0
VERTEX
  5
554
  8
Layer_0
  10
638.29041
  20
420.27454
  0
VERTEX
  5
555
  8
Layer_0
  10
638.46777
  20
420.32959
  0
VERTEX
  5
556
  8
Layer_0
  10
638.6283
  20
420.41672
  0
VERTEX
  5
557
  8
Layer_0
  10
638.76819
  20
420.5321
  0
VERTEX
  5
558
  8
Layer_0
  10
638.88354
  20
420.67197
  0
VERTEX
  5
559
  8
Layer_0
  10
638.9707
  20
420.83249
  0
VERTEX
  5
55a
  8
Layer_0
  10
639.02576
  20
421.00989
  0
VERTEX
  5
55b
  8
Layer_0
  10
639.04498
  20
421.20035
  0
VERTEX
  5
55c
  8
Layer_0
  10
639.02576
  20
421.39081
  0
VERTEX
  5
55d
  8
Layer_0
  10
638.9707
  20
421.56821
  0
VERTEX
  5
55e
  8
Layer_0
  10
638.88354
  20
421.72873
  0
VERTEX
  5
55f
  8
Layer_0
  10
638.76819
  20
421.86859
  0
VERTEX
  5
560
  8
Layer_0
  10
638.6283
  20
421.98398
  0
VERTEX
  5
561
  8
Layer_0
  10
638.46777
  20
422.07111
  0
VERTEX
  5
562
  8
Layer_0
  10
638.29041
  20
422.12616
  0
VERTEX
  5
563
  8
Layer_0
  10
638.09998
  20
422.14536
  0
VERTEX
  5
564
  8
Layer_0
  10
637.90955
  20
422.12616
  0
VERTEX
  5
565
  8
Layer_0
  10
637.73218
  20
422.07111
  0
VERTEX
  5
566
  8
Layer_0
  10
637.57166
  20
421.98398
  0
VERTEX
  5
567
  8
Layer_0
  10
637.43176
  20
421.86859
  0
VERTEX
  5
568
  8
Layer_0
  10
637.31641
  20
421.72873
  0
VERTEX
  5
569
  8
Layer_0
  10
637.22925
  20
421.56821
  0
VERTEX
  5
56a
  8
Layer_0
  10
637.17419
  20
421.39081
  0
VERTEX
  5
56b
  8
Layer_0
  10
637.15497
  20
421.20035
  0
VERTEX
  5
56c
  8
Layer_0
  10
637.17419
  20
421.00989
  0
VERTEX
  5
56d
  8
Layer_0
  10
637.22925
  20
420.83249
  0
VERTEX
  5
56e
  8
Layer_0
  10
637.31641
  20
420.67197
  0
VERTEX
  5
56f
  8
Layer_0
  10
637.43176
  20
420.5321
  0
VERTEX
  5
570
  8
Layer_0
  10
637.57166
  20
420.41672
  0
VERTEX
  5
571
  8
Layer_0
  10
637.73218
  20
420.32959
  0
VERTEX
  5
572
  8
Layer_0
  10
637.90955
  20
420.27454
  0
VERTEX
  5
573
  8
Layer_0
  10
638.09998
  20
420.25534
  0
SEQEND
  0
POLYLINE
  5
575
  8
Layer_0
  62
0
  70
1
  66
1
  10
0
  20
0
  30
0
  0
VERTEX
  5
575
  8
Layer_0
  10
600
  20
439.30536
  0
VERTEX
  5
576
  8
Layer_0
  10
600.19043
  20
439.32455
  0
VERTEX
  5
577
  8
Layer_0
  10
600.3678
  20
439.37961
  0
VERTEX
  5
578
  8
Layer_0
  10
600.52832
  20
439.46674
  0
VERTEX
  5
579
  8
Layer_0
  10
600.66821
  20
439.58215
  0
VERTEX
  5
57a
  8
Layer_0
  10
600.78357
  20
439.72202
  0
VERTEX
  5
57b
  8
Layer_0
  10
600.87073
  20
439.88251
  0
VERTEX
  5
57c
  8
Layer_0
  10
600.92578
  20
440.05991
  0
VERTEX
  5
57d
  8
Layer_0
  10
600.94501
  20
440.25037
  0
VERTEX
  5
57e
  8
Layer_0
  10
600.92578
  20
440.44083
  0
VERTEX
  5
57f
  8
Layer_0
  10
600.87073
  20
440.61823
  0
VERTEX
  5
580
  8
Layer_0
  10
600.78357
  20
440.77872
  0
VERTEX
  5
581
  8
Layer_0
  10
600.66821
  20
440.91858
  0
VERTEX
  5
582
  8
Layer_0
  10
600.52832
  20
441.034
  0
VERTEX
  5
583
  8
Layer_0
  10
600.3678
  20
441.12112
  0
VERTEX
  5
584
  8
Layer_0
  10
600.19043
  20
441.17618
  0
VERTEX
  5
585
  8
Layer_0
  10
600
  20
441.19537
  0
VERTEX
  5
586
  8
Layer_0
  10
599.80957
  20
441.17618
  0
VERTEX
  5
587
  8
Layer_0
  10
599.6322
  20
441.12112
  0
VERTEX
  5
588
  8
Layer_0
  10
599.47168
  20
441.034
  0
VERTEX
  5
589
  8
Layer_0
  10
599.33179
  20
440.91858
  0
VERTEX
  5
58a
  8
Layer_0
  10
599.21643
  20
440.77872
  0
VERTEX
  5
58b
  8
Layer_0
  10
599.12927
  20
440.61823
  0
VERTEX
  5
58c
  8
Layer_0
  10
599.07422
  20
440.44083
  0
VERTEX
  5
58d
  8
Layer_0
  10
599.05499
  20
440.25037
  0
VERTEX
  5
58e
  8
Layer_0
  10
599.07422
  20
440.05991
  0
VERTEX
  5
58f
  8
Layer_0
  10
599.12927
  20
439.88251
  0
VERTEX
  5
590
  8
Layer_0
  10
599.21643
  20
439.72202
  0
VERTEX
  5
591
  8
Layer_0
  10
599.33179
  20
439.58215
  0
VERTEX
  5
592
  8
Layer_0
  10
599.47168
  20
439.46674
  0
VERTEX
  5
593
  8
Layer_0
  10
599.6322
  20
439.37961
  0
VERTEX
  5
594
  8
Layer_0
  10
599.80957
  20
439.32455
  0
VERTEX
  5
595
  8
Layer_0
  10
600
  20
439.30536
  0
SEQEND
  0
POLYLINE
  5
597
  8
Layer_0
  62
0
  70
1
  66
1
  10
0
  20
0
  30
0
  0
VERTEX
  5
597
  8
Layer_0
  10
666.67499
  20
439.30536
  0
VERTEX
  5
598
  8
Layer_0
  10
666.86542
  20
439.32455
  0
VERTEX
  5
599
  8
Layer_0
  10
667.04285
  20
439.37961
  0
VERTEX
  5
59a
  8
Layer_0
  10
667.20337
  20
439.46674
  0
VERTEX
  5
59b
  8
Layer_0
  10
667.3432
  20
439.58215
  0
VERTEX
  5
59c
  8
Layer_0
  10
667.45862
  20
439.72202
  0
VERTEX
  5
59d
  8
Layer_0
  10
667.54578
  20
439.88251
  0
VERTEX
  5
59e
  8
Layer_0
  10
667.60083
  20
440.05991
  0
VERTEX
  5
59f
  8
Layer_0
  10
667.62
  20
440.25037
  0
VERTEX
  5
5a0
  8
Layer_0
  10
667.60083
  20
440.44083
  0
VERTEX
  5
5a1
  8
Layer_0
  10
667.54578
  20
440.61823
  0
VERTEX
  5
5a2
  8
Layer_0
  10
667.45862
  20
440.77872
  0
VERTEX
  5
5a3
  8
Layer_0
  10
667.3432
  20
440.91858
  0
VERTEX
  5
5a4
  8
Layer_0
  10
667.20337
  20
441.034
  0
VERTEX
  5
5a5
  8
Layer_0
  10
667.04285
  20
441.12112
  0
VERTEX
  5
5a6
  8
Layer_0
  10
666.86542
  20
441.17618
  0
VERTEX
  5
5a7
  8
Layer_0
  10
666.67499
  20
441.19537
  0
VERTEX
  5
5a8
  8
Layer_0
  10
666.48456
  20
441.17618
  0
VERTEX
  5
5a9
  8
Layer_0
  10
666.30713
  20
441.12112
  0
VERTEX
  5
5aa
  8
Layer_0
  10
666.14661
  20
441.034
  0
VERTEX
  5
5ab
  8
Layer_0
  10
666.00677
  20
440.91858
  0
VERTEX
  5
5ac
  8
Layer_0
  10
665.89136
  20
440.77872
  0
VERTEX
  5
5ad
  8
Layer_0
  10
665.8042
  20
440.61823
  0
VERTEX
  5
5ae
  8
Layer_0
  10
665.74915
  20
440.44083
  0
VERTEX
  5
5af
  8
Layer_0
  10
665.72998
  20
440.25037
  0
VERTEX
  5
5b0
  8
Layer_0
  10
665.74915
  20
440.05991
  0
VERTEX
  5
5b1
  8
Layer_0
  10
665.8042
  20
439.88251
  0
VERTEX
  5
5b2
  8
Layer_0
  10
665.89136
  20
439.72202
  0
VERTEX
  5
5b3
  8
Layer_0
  10
666.00677
  20
439.58215
  0
VERTEX
  5
5b4
  8
Layer_0
  10
666.14661
  20
439.46674
  0
VERTEX
  5
5b5
  8
Layer_0
  10
666.30713
  20
439.37961
  0
VERTEX
  5
5b6
  8
Layer_0
  10
666.48456
  20
439.32455
  0
VERTEX
  5
5b7
  8
Layer_0
  10
666.67499
  20
439.30536
  0
SEQEND
  0
POLYLINE
  5
5b9
  8
Layer_0
  62
0
  70
1
  66
1
  10
0
  20
0
  30
0
  0
VERTEX
  5
5b9
  8
Layer_0
  10
638.09998
  20
458.35535
  0
VERTEX
  5
5ba
  8
Layer_0
  10
638.29041
  20
458.37454
  0
VERTEX
  5
5bb
  8
Layer_0
  10
638.46777
  20
458.4296
  0
VERTEX
  5
5bc
  8
Layer_0
  10
638.6283
  20
458.51672
  0
VERTEX
  5
5bd
  8
Layer_0
  10
638.76819
  20
458.63214
  0
VERTEX
  5
5be
  8
Layer_0
  10
638.88354
  20
458.772
  0
VERTEX
  5
5bf
  8
Layer_0
  10
638.9707
  20
458.9325
  0
VERTEX
  5
5c0
  8
Layer_0
  10
639.02576
  20
459.10989
  0
VERTEX
  5
5c1
  8
Layer_0
  10
639.04498
  20
459.30035
  0
VERTEX
  5
5c2
  8
Layer_0
  10
639.02576
  20
459.49081
  0
VERTEX
  5
5c3
  8
Layer_0
  10
638.9707
  20
459.66821
  0
VERTEX
  5
5c4
  8
Layer_0
  10
638.88354
  20
459.8287
  0
VERTEX
  5
5c5
  8
Layer_0
  10
638.76819
  20
459.96857
  0
VERTEX
  5
5c6
  8
Layer_0
  10
638.6283
  20
460.08398
  0
VERTEX
  5
5c7
  8
Layer_0
  10
638.46777
  20
460.17111
  0
VERTEX
  5
5c8
  8
Layer_0
  10
638.29041
  20
460.22617
  0
VERTEX
  5
5c9
  8
Layer_0
  10
638.09998
  20
460.24536
  0
VERTEX
  5
5ca
  8
Layer_0
  10
637.90955
  20
460.22617
  0
VERTEX
  5
5cb
  8
Layer_0
  10
637.73218
  20
460.17111
  0
VERTEX
  5
5cc
  8
Layer_0
  10
637.57166
  20
460.08398
  0
VERTEX
  5
5cd
  8
Layer_0
  10
637.43176
  20
459.96857
  0
VERTEX
  5
5ce
  8
Layer_0
  10
637.31641
  20
459.8287
  0
VERTEX
  5
5cf
  8
Layer_0
  10
637.22925
  20
459.66821
  0
VERTEX
  5
5d0
  8
Layer_0
  10
637.17419
  20
459.49081
  0
VERTEX
  5
5d1
  8
Layer_0
  10
637.15497
  20
459.30035
  0
VERTEX
  5
5d2
  8
Layer_0
  10
637.17419
  20
459.10989
  0
VERTEX
  5
5d3
  8
Layer_0
  10
637.22925
  20
458.9325
  0
VERTEX
  5
5d4
  8
Layer_0
  10
637.31641
  20
458.772
  0
VERTEX
  5
5d5
  8
Layer_0
  10
637.43176
  20
458.63214
  0
VERTEX
  5
5d6
  8
Layer_0
  10
637.57166
  20
458.51672
  0
VERTEX
  5
5d7
  8
Layer_0
  10
637.73218
  20
458.4296
  0
VERTEX
  5
5d8
  8
Layer_0
  10
637.90955
  20
458.37454
  0
VERTEX
  5
5d9
  8
Layer_0
  10
638.09998
  20
458.35535
  0
SEQEND
  0
POLYLINE
  5
5db
  8
Layer_0
  62
0
  70
1
  66
1
  10
0
  20
0
  30
0
  0
VERTEX
  5
5db
  8
Layer_0
  10
466.64996
  20
420.56537
  0
VERTEX
  5
5dc
  8
Layer_0
  10
466.89709
  20
420.61526
  0
VERTEX
  5
5dd
  8
Layer_0
  10
467.099
  20
420.75134
  0
VERTEX
  5
5de
  8
Layer_0
  10
467.23505
  20
420.95319
  0
VERTEX
  5
5df
  8
Layer_0
  10
467.28497
  20
421.20035
  0
VERTEX
  5
5e0
  8
Layer_0
  10
467.23505
  20
421.44751
  0
VERTEX
  5
5e1
  8
Layer_0
  10
467.099
  20
421.64935
  0
VERTEX
  5
5e2
  8
Layer_0
  10
466.89709
  20
421.78543
  0
VERTEX
  5
5e3
  8
Layer_0
  10
466.64996
  20
421.83536
  0
VERTEX
  5
5e4
  8
Layer_0
  10
466.40283
  20
421.78543
  0
VERTEX
  5
5e5
  8
Layer_0
  10
466.20093
  20
421.64935
  0
VERTEX
  5
5e6
  8
Layer_0
  10
466.06488
  20
421.44751
  0
VERTEX
  5
5e7
  8
Layer_0
  10
466.01495
  20
421.20035
  0
VERTEX
  5
5e8
  8
Layer_0
  10
466.06488
  20
420.95319
  0
VERTEX
  5
5e9
  8
Layer_0
  10
466.20093
  20
420.75134
  0
VERTEX
  5
5ea
  8
Layer_0
  10
466.40283
  20
420.61526
  0
VERTEX
  5
5eb
  8
Layer_0
  10
466.64996
  20
420.56537
  0
SEQEND
  0
POLYLINE
  5
5ed
  8
Layer_0
  62
0
  70
1
  66
1
  10
0
  20
0
  30
0
  0
VERTEX
  5
5ed
  8
Layer_0
  10
466.64996
  20
407.20035
  0
VERTEX
  5
5ee
  8
Layer_0
  10
467.37036
  20
407.21857
  0
VERTEX
  5
5ef
  8
Layer_0
  10
468.08136
  20
407.27264
  0
VERTEX
  5
5f0
  8
Layer_0
  10
468.78204
  20
407.36169
  0
VERTEX
  5
5f1
  8
Layer_0
  10
469.4715
  20
407.48477
  0
VERTEX
  5
5f2
  8
Layer_0
  10
470.1488
  20
407.64105
  0
VERTEX
  5
5f3
  8
Layer_0
  10
470.81311
  20
407.82974
  0
VERTEX
  5
5f4
  8
Layer_0
  10
471.46362
  20
408.04984
  0
VERTEX
  5
5f5
  8
Layer_0
  10
472.09943
  20
408.30054
  0
VERTEX
  5
5f6
  8
Layer_0
  10
472.7196
  20
408.5809
  0
VERTEX
  5
5f7
  8
Layer_0
  10
473.32324
  20
408.89008
  0
VERTEX
  5
5f8
  8
Layer_0
  10
473.90948
  20
409.22717
  0
VERTEX
  5
5f9
  8
Layer_0
  10
474.47754
  20
409.59131
  0
VERTEX
  5
5fa
  8
Layer_0
  10
475.02649
  20
409.98163
  0
VERTEX
  5
5fb
  8
Layer_0
  10
475.5553
  20
410.39725
  0
VERTEX
  5
5fc
  8
Layer_0
  10
476.06323
  20
410.83728
  0
VERTEX
  5
5fd
  8
Layer_0
  10
476.5495
  20
411.30084
  0
VERTEX
  5
5fe
  8
Layer_0
  10
477.01306
  20
411.78705
  0
VERTEX
  5
5ff
  8
Layer_0
  10
477.45313
  20
412.29504
  0
VERTEX
  5
600
  8
Layer_0
  10
477.86871
  20
412.82391
  0
VERTEX
  5
601
  8
Layer_0
  10
478.25903
  20
413.3728
  0
VERTEX
  5
602
  8
Layer_0
  10
478.62317
  20
413.94086
  0
VERTEX
  5
603
  8
Layer_0
  10
478.96027
  20
414.5271
  0
VERTEX
  5
604
  8
Layer_0
  10
479.26941
  20
415.13077
  0
VERTEX
  5
605
  8
Layer_0
  10
479.5498
  20
415.75092
  0
VERTEX
  5
606
  8
Layer_0
  10
479.80042
  20
416.38666
  0
VERTEX
  5
607
  8
Layer_0
  10
480.02057
  20
417.03717
  0
VERTEX
  5
608
  8
Layer_0
  10
480.20923
  20
417.70151
  0
VERTEX
  5
609
  8
Layer_0
  10
480.36554
  20
418.37885
  0
VERTEX
  5
60a
  8
Layer_0
  10
480.48859
  20
419.06827
  0
VERTEX
  5
60b
  8
Layer_0
  10
480.57764
  20
419.76892
  0
VERTEX
  5
60c
  8
Layer_0
  10
480.63171
  20
420.47992
  0
VERTEX
  5
60d
  8
Layer_0
  10
480.64996
  20
421.20035
  0
VERTEX
  5
60e
  8
Layer_0
  10
480.63171
  20
421.92078
  0
VERTEX
  5
60f
  8
Layer_0
  10
480.57764
  20
422.63177
  0
VERTEX
  5
610
  8
Layer_0
  10
480.48859
  20
423.33243
  0
VERTEX
  5
611
  8
Layer_0
  10
480.36554
  20
424.02185
  0
VERTEX
  5
612
  8
Layer_0
  10
480.20923
  20
424.69919
  0
VERTEX
  5
613
  8
Layer_0
  10
480.02057
  20
425.36353
  0
VERTEX
  5
614
  8
Layer_0
  10
479.80042
  20
426.01404
  0
VERTEX
  5
615
  8
Layer_0
  10
479.5498
  20
426.64978
  0
VERTEX
  5
616
  8
Layer_0
  10
479.26941
  20
427.26993
  0
VERTEX
  5
617
  8
Layer_0
  10
478.96027
  20
427.8736
  0
VERTEX
  5
618
  8
Layer_0
  10
478.62317
  20
428.45984
  0
VERTEX
  5
619
  8
Layer_0
  10
478.25903
  20
429.02789
  0
VERTEX
  5
61a
  8
Layer_0
  10
477.86871
  20
429.57678
  0
VERTEX
  5
61b
  8
Layer_0
  10
477.45313
  20
430.10565
  0
VERTEX
  5
61c
  8
Layer_0
  10
477.01306
  20
430.61365
  0
VERTEX
  5
61d
  8
Layer_0
  10
476.5495
  20
431.09985
  0
VERTEX
  5
61e
  8
Layer_0
  10
476.06323
  20
431.56342
  0
VERTEX
  5
61f
  8
Layer_0
  10
475.5553
  20
432.00345
  0
VERTEX
  5
620
  8
Layer_0
  10
475.02649
  20
432.41907
  0
VERTEX
  5
621
  8
Layer_0
  10
474.47754
  20
432.80939
  0
VERTEX
  5
622
  8
Layer_0
  10
473.90948
  20
433.17352
  0
VERTEX
  5
623
  8
Layer_0
  10
473.32324
  20
433.51062
  0
VERTEX
  5
624
  8
Layer_0
  10
472.7196
  20
433.81979
  0
VERTEX
  5
625
  8
Layer_0
  10
472.09943
  20
434.10016
  0
VERTEX
  5
626
  8
Layer_0
  10
471.46362
  20
434.35086
  0
VERTEX
  5
627
  8
Layer_0
  10
470.81311
  20
434.57095
  0
VERTEX
  5
628
  8
Layer_0
  10
470.1488
  20
434.75964
  0
VERTEX
  5
629
  8
Layer_0
  10
469.4715
  20
434.91592
  0
VERTEX
  5
62a
  8
Layer_0
  10
468.78204
  20
435.039
  0
VERTEX
  5
62b
  8
Layer_0
  10
468.08136
  20
435.12805
  0
VERTEX
  5
62c
  8
Layer_0
  10
467.37036
  20
435.18213
  0
VERTEX
  5
62d
  8
Layer_0
  10
466.64996
  20
435.20035
  0
VERTEX
  5
62e
  8
Layer_0
  10
465.92957
  20
435.18213
  0
VERTEX
  5
62f
  8
Layer_0
  10
465.21857
  20
435.12805
  0
VERTEX
  5
630
  8
Layer_0
  10
464.51788
  20
435.039
  0
VERTEX
  5
631
  8
Layer_0
  10
463.82843
  20
434.91592
  0
VERTEX
  5
632
  8
Layer_0
  10
463.15112
  20
434.75964
  0
VERTEX
  5
633
  8
Layer_0
  10
462.48682
  20
434.57095
  0
VERTEX
  5
634
  8
Layer_0
  10
461.8363
  20
434.35086
  0
VERTEX
  5
635
  8
Layer_0
  10
461.2005
  20
434.10016
  0
VERTEX
  5
636
  8
Layer_0
  10
460.58032
  20
433.81979
  0
VERTEX
  5
637
  8
Layer_0
  10
459.97668
  20
433.51062
  0
VERTEX
  5
638
  8
Layer_0
  10
459.39044
  20
433.17352
  0
VERTEX
  5
639
  8
Layer_0
  10
458.82239
  20
432.80939
  0
VERTEX
  5
63a
  8
Layer_0
  10
458.27344
  20
432.41907
  0
VERTEX
  5
63b
  8
Layer_0
  10
457.74463
  20
432.00345
  0
VERTEX
  5
63c
  8
Layer_0
  10
457.23669
  20
431.56342
  0
VERTEX
  5
63d
  8
Layer_0
  10
456.75043
  20
431.09985
  0
VERTEX
  5
63e
  8
Layer_0
  10
456.28687
  20
430.61365
  0
VERTEX
  5
63f
  8
Layer_0
  10
455.8468
  20
430.10565
  0
VERTEX
  5
640
  8
Layer_0
  10
455.43121
  20
429.57678
  0
VERTEX
  5
641
  8
Layer_0
  10
455.04089
  20
429.02789
  0
VERTEX
  5
642
  8
Layer_0
  10
454.67676
  20
428.45984
  0
VERTEX
  5
643
  8
Layer_0
  10
454.33966
  20
427.8736
  0
VERTEX
  5
644
  8
Layer_0
  10
454.03052
  20
427.26993
  0
VERTEX
  5
645
  8
Layer_0
  10
453.75012
  20
426.64978
  0
VERTEX
  5
646
  8
Layer_0
  10
453.49951
  20
426.01404
  0
VERTEX
  5
647
  8
Layer_0
  10
453.27936
  20
425.36353
  0
VERTEX
  5
648
  8
Layer_0
  10
453.0907
  20
424.69919
  0
VERTEX
  5
649
  8
Layer_0
  10
452.93439
  20
424.02185
  0
VERTEX
  5
64a
  8
Layer_0
  10
452.81134
  20
423.33243
  0
VERTEX
  5
64b
  8
Layer_0
  10
452.72229
  20
422.63177
  0
VERTEX
  5
64c
  8
Layer_0
  10
452.66821
  20
421.92078
  0
VERTEX
  5
64d
  8
Layer_0
  10
452.64996
  20
421.20035
  0
VERTEX
  5
64e
  8
Layer_0
  10
452.66821
  20
420.47992
  0
VERTEX
  5
64f
  8
Layer_0
  10
452.72229
  20
419.76892
  0
VERTEX
  5
650
  8
Layer_0
  10
452.81134
  20
419.06827
  0
VERTEX
  5
651
  8
Layer_0
  10
452.93439
  20
418.37885
  0
VERTEX
  5
652
  8
Layer_0
  10
453.0907
  20
417.70151
  0
VERTEX
  5
653
  8
Layer_0
  10
453.27936
  20
417.03717
  0
VERTEX
  5
654
  8
Layer_0
  10
453.49951
  20
416.38666
  0
VERTEX
  5
655
  8
Layer_0
  10
453.75012
  20
415.75092
  0
VERTEX
  5
656
  8
Layer_0
  10
454.03052
  20
415.13077
  0
VERTEX
  5
657
  8
Layer_0
  10
454.33966
  20
414.5271
  0
VERTEX
  5
658
  8
Layer_0
  10
454.67676
  20
413.94086
  0
VERTEX
  5
659
  8
Layer_0
  10
455.04089
  20
413.3728
  0
VERTEX
  5
65a
  8
Layer_0
  10
455.43121
  20
412.82391
  0
VERTEX
  5
65b
  8
Layer_0
  10
455.8468
  20
412.29504
  0
VERTEX
  5
65c
  8
Layer_0
  10
456.28687
  20
411.78705
  0
VERTEX
  5
65d
  8
Layer_0
  10
456.75043
  20
411.30084
  0
VERTEX
  5
65e
  8
Layer_0
  10
457.23669
  20
410.83728
  0
VERTEX
  5
65f
  8
Layer_0
  10
457.74463
  20
410.39725
  0
VERTEX
  5
660
  8
Layer_0
  10
458.27344
  20
409.98163
  0
VERTEX
  5
661
  8
Layer_0
  10
458.82239
  20
409.59131
  0
VERTEX
  5
662
  8
Layer_0
  10
459.39044
  20
409.22717
  0
VERTEX
  5
663
  8
Layer_0
  10
459.97668
  20
408.89008
  0
VERTEX
  5
664
  8
Layer_0
  10
460.58032
  20
408.5809
  0
VERTEX
  5
665
  8
Layer_0
  10
461.2005
  20
408.30054
  0
VERTEX
  5
666
  8
Layer_0
  10
461.8363
  20
408.04984
  0
VERTEX
  5
667
  8
Layer_0
  10
462.48682
  20
407.82974
  0
VERTEX
  5
668
  8
Layer_0
  10
463.15112
  20
407.64105
  0
VERTEX
  5
669
  8
Layer_0
  10
463.82843
  20
407.48477
  0
VERTEX
  5
66a
  8
Layer_0
  10
464.51788
  20
407.36169
  0
VERTEX
  5
66b
  8
Layer_0
  10
465.21857
  20
407.27264
  0
VERTEX
  5
66c
  8
Layer_0
  10
465.92957
  20
407.21857
  0
VERTEX
  5
66d
  8
Layer_0
  10
466.64996
  20
407.20035
  0
SEQEND
  0
POLYLINE
  5
66f
  8
Layer_0
  62
0
  70
1
  66
1
  10
0
  20
0
  30
0
  0
VERTEX
  5
66f
  8
Layer_0
  10
476.14996
  20
493.65036
  0
VERTEX
  5
670
  8
Layer_0
  10
476.11853
  20
493.96274
  0
VERTEX
  5
671
  8
Layer_0
  10
476.02814
  20
494.25369
  0
VERTEX
  5
672
  8
Layer_0
  10
475.88519
  20
494.517
  0
VERTEX
  5
673
  8
Layer_0
  10
475.69592
  20
494.74637
  0
VERTEX
  5
674
  8
Layer_0
  10
475.46649
  20
494.93561
  0
VERTEX
  5
675
  8
Layer_0
  10
475.20325
  20
495.07855
  0
VERTEX
  5
676
  8
Layer_0
  10
474.91229
  20
495.16885
  0
VERTEX
  5
677
  8
Layer_0
  10
474.59998
  20
495.20035
  0
VERTEX
  5
678
  8
Layer_0
  10
474.28766
  20
495.16885
  0
VERTEX
  5
679
  8
Layer_0
  10
473.9967
  20
495.07855
  0
VERTEX
  5
67a
  8
Layer_0
  10
473.73346
  20
494.93561
  0
VERTEX
  5
67b
  8
Layer_0
  10
473.50403
  20
494.74637
  0
VERTEX
  5
67c
  8
Layer_0
  10
473.31476
  20
494.517
  0
VERTEX
  5
67d
  8
Layer_0
  10
473.17181
  20
494.25369
  0
VERTEX
  5
67e
  8
Layer_0
  10
473.08142
  20
493.96274
  0
VERTEX
  5
67f
  8
Layer_0
  10
473.04999
  20
493.65036
  0
VERTEX
  5
680
  8
Layer_0
  10
473.08142
  20
493.33798
  0
VERTEX
  5
681
  8
Layer_0
  10
473.17181
  20
493.04703
  0
VERTEX
  5
682
  8
Layer_0
  10
473.31476
  20
492.78372
  0
VERTEX
  5
683
  8
Layer_0
  10
473.50403
  20
492.55435
  0
VERTEX
  5
684
  8
Layer_0
  10
473.73346
  20
492.36511
  0
VERTEX
  5
685
  8
Layer_0
  10
473.9967
  20
492.22217
  0
VERTEX
  5
686
  8
Layer_0
  10
474.28766
  20
492.13187
  0
VERTEX
  5
687
  8
Layer_0
  10
474.59998
  20
492.10037
  0
VERTEX
  5
688
  8
Layer_0
  10
474.91229
  20
492.13187
  0
VERTEX
  5
689
  8
Layer_0
  10
475.20325
  20
492.22217
  0
VERTEX
  5
68a
  8
Layer_0
  10
475.46649
  20
492.36511
  0
VERTEX
  5
68b
  8
Layer_0
  10
475.69592
  20
492.55435
  0
VERTEX
  5
68c
  8
Layer_0
  10
475.88519
  20
492.78372
  0
VERTEX
  5
68d
  8
Layer_0
  10
476.02814
  20
493.04703
  0
VERTEX
  5
68e
  8
Layer_0
  10
476.11853
  20
493.33798
  0
VERTEX
  5
68f
  8
Layer_0
  10
476.14996
  20
493.65036
  0
SEQEND
  0
POLYLINE
  5
691
  8
Layer_0
  62
0
  70
1
  66
1
  10
0
  20
0
  30
0
  0
VERTEX
  5
691
  8
Layer_0
  10
451.09998
  20
407.20035
  0
VERTEX
  5
692
  8
Layer_0
  10
450.78766
  20
407.16885
  0
VERTEX
  5
693
  8
Layer_0
  10
450.4967
  20
407.07855
  0
VERTEX
  5
694
  8
Layer_0
  10
450.23346
  20
406.93561
  0
VERTEX
  5
695
  8
Layer_0
  10
450.00403
  20
406.74637
  0
VERTEX
  5
696
  8
Layer_0
  10
449.81476
  20
406.517
  0
VERTEX
  5
697
  8
Layer_0
  10
449.67181
  20
406.25369
  0
VERTEX
  5
698
  8
Layer_0
  10
449.58142
  20
405.96274
  0
VERTEX
  5
699
  8
Layer_0
  10
449.54999
  20
405.65036
  0
VERTEX
  5
69a
  8
Layer_0
  10
449.58142
  20
405.33798
  0
VERTEX
  5
69b
  8
Layer_0
  10
449.67181
  20
405.04703
  0
VERTEX
  5
69c
  8
Layer_0
  10
449.81476
  20
404.78372
  0
VERTEX
  5
69d
  8
Layer_0
  10
450.00403
  20
404.55435
  0
VERTEX
  5
69e
  8
Layer_0
  10
450.23346
  20
404.36511
  0
VERTEX
  5
69f
  8
Layer_0
  10
450.4967
  20
404.22217
  0
VERTEX
  5
6a0
  8
Layer_0
  10
450.78766
  20
404.13187
  0
VERTEX
  5
6a1
  8
Layer_0
  10
451.09998
  20
404.10037
  0
VERTEX
  5
6a2
  8
Layer_0
  10
451.41229
  20
404.13187
  0
VERTEX
  5
6a3
  8
Layer_0
  10
451.70325
  20
404.22217
  0
VERTEX
  5
6a4
  8
Layer_0
  10
451.96649
  20
404.36511
  0
VERTEX
  5
6a5
  8
Layer_0
  10
452.19592
  20
404.55435
  0
VERTEX
  5
6a6
  8
Layer_0
  10
452.38519
  20
404.78372
  0
VERTEX
  5
6a7
  8
Layer_0
  10
452.52814
  20
405.04703
  0
VERTEX
  5
6a8
  8
Layer_0
  10
452.61853
  20
405.33798
  0
VERTEX
  5
6a9
  8
Layer_0
  10
452.64996
  20
405.65036
  0
VERTEX
  5
6aa
  8
Layer_0
  10
452.61853
  20
405.96274
  0
VERTEX
  5
6ab
  8
Layer_0
  10
452.52814
  20
406.25369
  0
VERTEX
  5
6ac
  8
Layer_0
  10
452.38519
  20
406.517
  0
VERTEX
  5
6ad
  8
Layer_0
  10
452.19592
  20
406.74637
  0
VERTEX
  5
6ae
  8
Layer_0
  10
451.96649
  20
406.93561
  0
VERTEX
  5
6af
  8
Layer_0
  10
451.70325
  20
407.07855
  0
VERTEX
  5
6b0
  8
Layer_0
  10
451.41229
  20
407.16885
  0
VERTEX
  5
6b1
  8
Layer_0
  10
451.09998
  20
407.20035
  0
SEQEND
  0
POLYLINE
  5
6b3
  8
Layer_0
  62
0
  70
1
  66
1
  10
0
  20
0
  30
0
  0
VERTEX
  5
6b3
  8
Layer_0
  10
451.09998
  20
438.20035
  0
VERTEX
  5
6b4
  8
Layer_0
  10
450.78766
  20
438.16885
  0
VERTEX
  5
6b5
  8
Layer_0
  10
450.4967
  20
438.07855
  0
VERTEX
  5
6b6
  8
Layer_0
  10
450.23346
  20
437.93561
  0
VERTEX
  5
6b7
  8
Layer_0
  10
450.00403
  20
437.74637
  0
VERTEX
  5
6b8
  8
Layer_0
  10
449.81476
  20
437.517
  0
VERTEX
  5
6b9
  8
Layer_0
  10
449.67181
  20
437.25369
  0
VERTEX
  5
6ba
  8
Layer_0
  10
449.58142
  20
436.96274
  0
VERTEX
  5
6bb
  8
Layer_0
  10
449.54999
  20
436.65036
  0
VERTEX
  5
6bc
  8
Layer_0
  10
449.58142
  20
436.33798
  0
VERTEX
  5
6bd
  8
Layer_0
  10
449.67181
  20
436.04703
  0
VERTEX
  5
6be
  8
Layer_0
  10
449.81476
  20
435.78372
  0
VERTEX
  5
6bf
  8
Layer_0
  10
450.00403
  20
435.55435
  0
VERTEX
  5
6c0
  8
Layer_0
  10
450.23346
  20
435.36511
  0
VERTEX
  5
6c1
  8
Layer_0
  10
450.4967
  20
435.22217
  0
VERTEX
  5
6c2
  8
Layer_0
  10
450.78766
  20
435.13187
  0
VERTEX
  5
6c3
  8
Layer_0
  10
451.09998
  20
435.10037
  0
VERTEX
  5
6c4
  8
Layer_0
  10
451.41229
  20
435.13187
  0
VERTEX
  5
6c5
  8
Layer_0
  10
451.70325
  20
435.22217
  0
VERTEX
  5
6c6
  8
Layer_0
  10
451.96649
  20
435.36511
  0
VERTEX
  5
6c7
  8
Layer_0
  10
452.19592
  20
435.55435
  0
VERTEX
  5
6c8
  8
Layer_0
  10
452.38519
  20
435.78372
  0
VERTEX
  5
6c9
  8
Layer_0
  10
452.52814
  20
436.04703
  0
VERTEX
  5
6ca
  8
Layer_0
  10
452.61853
  20
436.33798
  0
VERTEX
  5
6cb
  8
Layer_0
  10
452.64996
  20
436.65036
  0
VERTEX
  5
6cc
  8
Layer_0
  10
452.61853
  20
436.96274
  0
VERTEX
  5
6cd
  8
Layer_0
  10
452.52814
  20
437.25369
  0
VERTEX
  5
6ce
  8
Layer_0
  10
452.38519
  20
437.517
  0
VERTEX
  5
6cf
  8
Layer_0
  10
452.19592
  20
437.74637
  0
VERTEX
  5
6d0
  8
Layer_0
  10
451.96649
  20
437.93561
  0
VERTEX
  5
6d1
  8
Layer_0
  10
451.70325
  20
438.07855
  0
VERTEX
  5
6d2
  8
Layer_0
  10
451.41229
  20
438.16885
  0
VERTEX
  5
6d3
  8
Layer_0
  10
451.09998
  20
438.20035
  0
SEQEND
  0
POLYLINE
  5
6d5
  8
Layer_0
  62
0
  70
1
  66
1
  10
0
  20
0
  30
0
  0
VERTEX
  5
6d5
  8
Layer_0
  10
474.59998
  20
446.20035
  0
VERTEX
  5
6d6
  8
Layer_0
  10
474.28766
  20
446.16885
  0
VERTEX
  5
6d7
  8
Layer_0
  10
473.9967
  20
446.07855
  0
VERTEX
  5
6d8
  8
Layer_0
  10
473.73346
  20
445.93561
  0
VERTEX
  5
6d9
  8
Layer_0
  10
473.50403
  20
445.74637
  0
VERTEX
  5
6da
  8
Layer_0
  10
473.31476
  20
445.517
  0
VERTEX
  5
6db
  8
Layer_0
  10
473.17181
  20
445.25369
  0
VERTEX
  5
6dc
  8
Layer_0
  10
473.08142
  20
444.96274
  0
VERTEX
  5
6dd
  8
Layer_0
  10
473.04999
  20
444.65036
  0
VERTEX
  5
6de
  8
Layer_0
  10
473.08142
  20
444.33798
  0
VERTEX
  5
6df
  8
Layer_0
  10
473.17181
  20
444.04703
  0
VERTEX
  5
6e0
  8
Layer_0
  10
473.31476
  20
443.78372
  0
VERTEX
  5
6e1
  8
Layer_0
  10
473.50403
  20
443.55435
  0
VERTEX
  5
6e2
  8
Layer_0
  10
473.73346
  20
443.36511
  0
VERTEX
  5
6e3
  8
Layer_0
  10
473.9967
  20
443.22217
  0
VERTEX
  5
6e4
  8
Layer_0
  10
474.28766
  20
443.13187
  0
VERTEX
  5
6e5
  8
Layer_0
  10
474.59998
  20
443.10037
  0
VERTEX
  5
6e6
  8
Layer_0
  10
474.91229
  20
443.13187
  0
VERTEX
  5
6e7
  8
Layer_0
  10
475.20325
  20
443.22217
  0
VERTEX
  5
6e8
  8
Layer_0
  10
475.46649
  20
443.36511
  0
VERTEX
  5
6e9
  8
Layer_0
  10
475.69592
  20
443.55435
  0
VERTEX
  5
6ea
  8
Layer_0
  10
475.88519
  20
443.78372
  0
VERTEX
  5
6eb
  8
Layer_0
  10
476.02814
  20
444.04703
  0
VERTEX
  5
6ec
  8
Layer_0
  10
476.11853
  20
444.33798
  0
VERTEX
  5
6ed
  8
Layer_0
  10
476.14996
  20
444.65036
  0
VERTEX
  5
6ee
  8
Layer_0
  10
476.11853
  20
444.96274
  0
VERTEX
  5
6ef
  8
Layer_0
  10
476.02814
  20
445.25369
  0
VERTEX
  5
6f0
  8
Layer_0
  10
475.88519
  20
445.517
  0
VERTEX
  5
6f1
  8
Layer_0
  10
475.69592
  20
445.74637
  0
VERTEX
  5
6f2
  8
Layer_0
  10
475.46649
  20
445.93561
  0
VERTEX
  5
6f3
  8
Layer_0
  10
475.20325
  20
446.07855
  0
VERTEX
  5
6f4
  8
Layer_0
  10
474.91229
  20
446.16885
  0
VERTEX
  5
6f5
  8
Layer_0
  10
474.59998
  20
446.20035
  0
SEQEND
  0
POLYLINE
  5
6f7
  8
Layer_0
  62
0
  70
1
  66
1
  10
0
  20
0
  30
0
  0
VERTEX
  5
6f7
  8
Layer_0
  10
748.59998
  20
495.20035
  0
VERTEX
  5
6f8
  8
Layer_0
  10
748.2876
  20
495.16885
  0
VERTEX
  5
6f9
  8
Layer_0
  10
747.99664
  20
495.07855
  0
VERTEX
  5
6fa
  8
Layer_0
  10
747.7334
  20
494.93561
  0
VERTEX
  5
6fb
  8
Layer_0
  10
747.50397
  20
494.74637
  0
VERTEX
  5
6fc
  8
Layer_0
  10
747.3147
  20
494.517
  0
VERTEX
  5
6fd
  8
Layer_0
  10
747.17175
  20
494.25369
  0
VERTEX
  5
6fe
  8
Layer_0
  10
747.08148
  20
493.96274
  0
VERTEX
  5
6ff
  8
Layer_0
  10
747.04999
  20
493.65036
  0
VERTEX
  5
700
  8
Layer_0
  10
747.08148
  20
493.33798
  0
VERTEX
  5
701
  8
Layer_0
  10
747.17175
  20
493.04703
  0
VERTEX
  5
702
  8
Layer_0
  10
747.3147
  20
492.78372
  0
VERTEX
  5
703
  8
Layer_0
  10
747.50397
  20
492.55435
  0
VERTEX
  5
704
  8
Layer_0
  10
747.7334
  20
492.36511
  0
VERTEX
  5
705
  8
Layer_0
  10
747.99664
  20
492.22217
  0
VERTEX
  5
706
  8
Layer_0
  10
748.2876
  20
492.13187
  0
VERTEX
  5
707
  8
Layer_0
  10
748.59998
  20
492.10037
  0
VERTEX
  5
708
  8
Layer_0
  10
748.91235
  20
492.13187
  0
VERTEX
  5
709
  8
Layer_0
  10
749.20331
  20
492.22217
  0
VERTEX
  5
70a
  8
Layer_0
  10
749.46655
  20
492.36511
  0
VERTEX
  5
70b
  8
Layer_0
  10
749.69598
  20
492.55435
  0
VERTEX
  5
70c
  8
Layer_0
  10
749.88525
  20
492.78372
  0
VERTEX
  5
70d
  8
Layer_0
  10
750.0282
  20
493.04703
  0
VERTEX
  5
70e
  8
Layer_0
  10
750.11847
  20
493.33798
  0
VERTEX
  5
70f
  8
Layer_0
  10
750.14996
  20
493.65036
  0
VERTEX
  5
710
  8
Layer_0
  10
750.11847
  20
493.96274
  0
VERTEX
  5
711
  8
Layer_0
  10
750.0282
  20
494.25369
  0
VERTEX
  5
712
  8
Layer_0
  10
749.88525
  20
494.517
  0
VERTEX
  5
713
  8
Layer_0
  10
749.69598
  20
494.74637
  0
VERTEX
  5
714
  8
Layer_0
  10
749.46655
  20
494.93561
  0
VERTEX
  5
715
  8
Layer_0
  10
749.20331
  20
495.07855
  0
VERTEX
  5
716
  8
Layer_0
  10
748.91235
  20
495.16885
  0
VERTEX
  5
717
  8
Layer_0
  10
748.59998
  20
495.20035
  0
SEQEND
  0
POLYLINE
  5
719
  8
Layer_0
  62
0
  70
1
  66
1
  10
0
  20
0
  30
0
  0
VERTEX
  5
719
  8
Layer_0
  10
532.59998
  20
446.20035
  0
VERTEX
  5
71a
  8
Layer_0
  10
532.28766
  20
446.16885
  0
VERTEX
  5
71b
  8
Layer_0
  10
531.9967
  20
446.07855
  0
VERTEX
  5
71c
  8
Layer_0
  10
531.73346
  20
445.93561
  0
VERTEX
  5
71d
  8
Layer_0
  10
531.50403
  20
445.74637
  0
VERTEX
  5
71e
  8
Layer_0
  10
531.31476
  20
445.517
  0
VERTEX
  5
71f
  8
Layer_0
  10
531.17181
  20
445.25369
  0
VERTEX
  5
720
  8
Layer_0
  10
531.08142
  20
444.96274
  0
VERTEX
  5
721
  8
Layer_0
  10
531.04999
  20
444.65036
  0
VERTEX
  5
722
  8
Layer_0
  10
531.08142
  20
444.33798
  0
VERTEX
  5
723
  8
Layer_0
  10
531.17181
  20
444.04703
  0
VERTEX
  5
724
  8
Layer_0
  10
531.31476
  20
443.78372
  0
VERTEX
  5
725
  8
Layer_0
  10
531.50403
  20
443.55435
  0
VERTEX
  5
726
  8
Layer_0
  10
531.73346
  20
443.36511
  0
VERTEX
  5
727
  8
Layer_0
  10
531.9967
  20
443.22217
  0
VERTEX
  5
728
  8
Layer_0
  10
532.28766
  20
443.13187
  0
VERTEX
  5
729
  8
Layer_0
  10
532.59998
  20
443.10037
  0
VERTEX
  5
72a
  8
Layer_0
  10
532.91229
  20
443.13187
  0
VERTEX
  5
72b
  8
Layer_0
  10
533.20325
  20
443.22217
  0
VERTEX
  5
72c
  8
Layer_0
  10
533.46649
  20
443.36511
  0
VERTEX
  5
72d
  8
Layer_0
  10
533.69592
  20
443.55435
  0
VERTEX
  5
72e
  8
Layer_0
  10
533.88519
  20
443.78372
  0
VERTEX
  5
72f
  8
Layer_0
  10
534.02814
  20
444.04703
  0
VERTEX
  5
730
  8
Layer_0
  10
534.11853
  20
444.33798
  0
VERTEX
  5
731
  8
Layer_0
  10
534.14996
  20
444.65036
  0
VERTEX
  5
732
  8
Layer_0
  10
534.11853
  20
444.96274
  0
VERTEX
  5
733
  8
Layer_0
  10
534.02814
  20
445.25369
  0
VERTEX
  5
734
  8
Layer_0
  10
533.88519
  20
445.517
  0
VERTEX
  5
735
  8
Layer_0
  10
533.69592
  20
445.74637
  0
VERTEX
  5
736
  8
Layer_0
  10
533.46649
  20
445.93561
  0
VERTEX
  5
737
  8
Layer_0
  10
533.20325
  20
446.07855
  0
VERTEX
  5
738
  8
Layer_0
  10
532.91229
  20
446.16885
  0
VERTEX
  5
739
  8
Layer_0
  10
532.59998
  20
446.20035
  0
SEQEND
  0
POLYLINE
  5
73b
  8
Layer_0
  62
0
  70
1
  66
1
  10
0
  20
0
  30
0
  0
VERTEX
  5
73b
  8
Layer_0
  10
532.59998
  20
495.20035
  0
VERTEX
  5
73c
  8
Layer_0
  10
532.28766
  20
495.16885
  0
VERTEX
  5
73d
  8
Layer_0
  10
531.9967
  20
495.07855
  0
VERTEX
  5
73e
  8
Layer_0
  10
531.73346
  20
494.93561
  0
VERTEX
  5
73f
  8
Layer_0
  10
531.50403
  20
494.74637
  0
VERTEX
  5
740
  8
Layer_0
  10
531.31476
  20
494.517
  0
VERTEX
  5
741
  8
Layer_0
  10
531.17181
  20
494.25369
  0
VERTEX
  5
742
  8
Layer_0
  10
531.08142
  20
493.96274
  0
VERTEX
  5
743
  8
Layer_0
  10
531.04999
  20
493.65036
  0
VERTEX
  5
744
  8
Layer_0
  10
531.08142
  20
493.33798
  0
VERTEX
  5
745
  8
Layer_0
  10
531.17181
  20
493.04703
  0
VERTEX
  5
746
  8
Layer_0
  10
531.31476
  20
492.78372
  0
VERTEX
  5
747
  8
Layer_0
  10
531.50403
  20
492.55435
  0
VERTEX
  5
748
  8
Layer_0
  10
531.73346
  20
492.36511
  0
VERTEX
  5
749
  8
Layer_0
  10
531.9967
  20
492.22217
  0
VERTEX
  5
74a
  8
Layer_0
  10
532.28766
  20
492.13187
  0
VERTEX
  5
74b
  8
Layer_0
  10
532.59998
  20
492.10037
  0
VERTEX
  5
74c
  8
Layer_0
  10
532.91229
  20
492.13187
  0
VERTEX
  5
74d
  8
Layer_0
  10
533.20325
  20
492.22217
  0
VERTEX
  5
74e
  8
Layer_0
  10
533.46649
  20
492.36511
  0
VERTEX
  5
74f
  8
Layer_0
  10
533.69592
  20
492.55435
  0
VERTEX
  5
750
  8
Layer_0
  10
533.88519
  20
492.78372
  0
VERTEX
  5
751
  8
Layer_0
  10
534.02814
  20
493.04703
  0
VERTEX
  5
752
  8
Layer_0
  10
534.11853
  20
493.33798
  0
VERTEX
  5
753
  8
Layer_0
  10
534.14996
  20
493.65036
  0
VERTEX
  5
754
  8
Layer_0
  10
534.11853
  20
493.96274
  0
VERTEX
  5
755
  8
Layer_0
  10
534.02814
  20
494.25369
  0
VERTEX
  5
756
  8
Layer_0
  10
533.88519
  20
494.517
  0
VERTEX
  5
757
  8
Layer_0
  10
533.69592
  20
494.74637
  0
VERTEX
  5
758
  8
Layer_0
  10
533.46649
  20
494.93561
  0
VERTEX
  5
759
  8
Layer_0
  10
533.20325
  20
495.07855
  0
VERTEX
  5
75a
  8
Layer_0
  10
532.91229
  20
495.16885
  0
VERTEX
  5
75b
  8
Layer_0
  10
532.59998
  20
495.20035
  0
SEQEND
  0
POLYLINE
  5
75d
  8
Layer_0
  62
0
  70
1
  66
1
  10
0
  20
0
  30
0
  0
VERTEX
  5
75d
  8
Layer_0
  10
542.84998
  20
492.70535
  0
VERTEX
  5
75e
  8
Layer_0
  10
543.04041
  20
492.72455
  0
VERTEX
  5
75f
  8
Layer_0
  10
543.21777
  20
492.7796
  0
VERTEX
  5
760
  8
Layer_0
  10
543.3783
  20
492.86673
  0
VERTEX
  5
761
  8
Layer_0
  10
543.51819
  20
492.98212
  0
VERTEX
  5
762
  8
Layer_0
  10
543.63354
  20
493.12198
  0
VERTEX
  5
763
  8
Layer_0
  10
543.7207
  20
493.2825
  0
VERTEX
  5
764
  8
Layer_0
  10
543.77576
  20
493.4599
  0
VERTEX
  5
765
  8
Layer_0
  10
543.79498
  20
493.65036
  0
VERTEX
  5
766
  8
Layer_0
  10
543.77576
  20
493.84082
  0
VERTEX
  5
767
  8
Layer_0
  10
543.7207
  20
494.01822
  0
VERTEX
  5
768
  8
Layer_0
  10
543.63354
  20
494.17874
  0
VERTEX
  5
769
  8
Layer_0
  10
543.51819
  20
494.3186
  0
VERTEX
  5
76a
  8
Layer_0
  10
543.3783
  20
494.43399
  0
VERTEX
  5
76b
  8
Layer_0
  10
543.21777
  20
494.52112
  0
VERTEX
  5
76c
  8
Layer_0
  10
543.04041
  20
494.57617
  0
VERTEX
  5
76d
  8
Layer_0
  10
542.84998
  20
494.59537
  0
VERTEX
  5
76e
  8
Layer_0
  10
542.65955
  20
494.57617
  0
VERTEX
  5
76f
  8
Layer_0
  10
542.48218
  20
494.52112
  0
VERTEX
  5
770
  8
Layer_0
  10
542.32166
  20
494.43399
  0
VERTEX
  5
771
  8
Layer_0
  10
542.18176
  20
494.3186
  0
VERTEX
  5
772
  8
Layer_0
  10
542.06641
  20
494.17874
  0
VERTEX
  5
773
  8
Layer_0
  10
541.97925
  20
494.01822
  0
VERTEX
  5
774
  8
Layer_0
  10
541.92419
  20
493.84082
  0
VERTEX
  5
775
  8
Layer_0
  10
541.90497
  20
493.65036
  0
VERTEX
  5
776
  8
Layer_0
  10
541.92419
  20
493.4599
  0
VERTEX
  5
777
  8
Layer_0
  10
541.97925
  20
493.2825
  0
VERTEX
  5
778
  8
Layer_0
  10
542.06641
  20
493.12198
  0
VERTEX
  5
779
  8
Layer_0
  10
542.18176
  20
492.98212
  0
VERTEX
  5
77a
  8
Layer_0
  10
542.32166
  20
492.86673
  0
VERTEX
  5
77b
  8
Layer_0
  10
542.48218
  20
492.7796
  0
VERTEX
  5
77c
  8
Layer_0
  10
542.65955
  20
492.72455
  0
VERTEX
  5
77d
  8
Layer_0
  10
542.84998
  20
492.70535
  0
SEQEND
  0
POLYLINE
  5
77f
  8
Layer_0
  62
0
  70
1
  66
1
  10
0
  20
0
  30
0
  0
VERTEX
  5
77f
  8
Layer_0
  10
451.09998
  20
492.70535
  0
VERTEX
  5
780
  8
Layer_0
  10
451.29041
  20
492.72455
  0
VERTEX
  5
781
  8
Layer_0
  10
451.46777
  20
492.7796
  0
VERTEX
  5
782
  8
Layer_0
  10
451.6283
  20
492.86673
  0
VERTEX
  5
783
  8
Layer_0
  10
451.76819
  20
492.98212
  0
VERTEX
  5
784
  8
Layer_0
  10
451.88354
  20
493.12198
  0
VERTEX
  5
785
  8
Layer_0
  10
451.9707
  20
493.2825
  0
VERTEX
  5
786
  8
Layer_0
  10
452.02576
  20
493.4599
  0
VERTEX
  5
787
  8
Layer_0
  10
452.04498
  20
493.65036
  0
VERTEX
  5
788
  8
Layer_0
  10
452.02576
  20
493.84082
  0
VERTEX
  5
789
  8
Layer_0
  10
451.9707
  20
494.01822
  0
VERTEX
  5
78a
  8
Layer_0
  10
451.88354
  20
494.17874
  0
VERTEX
  5
78b
  8
Layer_0
  10
451.76819
  20
494.3186
  0
VERTEX
  5
78c
  8
Layer_0
  10
451.6283
  20
494.43399
  0
VERTEX
  5
78d
  8
Layer_0
  10
451.46777
  20
494.52112
  0
VERTEX
  5
78e
  8
Layer_0
  10
451.29041
  20
494.57617
  0
VERTEX
  5
78f
  8
Layer_0
  10
451.09998
  20
494.59537
  0
VERTEX
  5
790
  8
Layer_0
  10
450.90955
  20
494.57617
  0
VERTEX
  5
791
  8
Layer_0
  10
450.73218
  20
494.52112
  0
VERTEX
  5
792
  8
Layer_0
  10
450.57166
  20
494.43399
  0
VERTEX
  5
793
  8
Layer_0
  10
450.43176
  20
494.3186
  0
VERTEX
  5
794
  8
Layer_0
  10
450.31641
  20
494.17874
  0
VERTEX
  5
795
  8
Layer_0
  10
450.22925
  20
494.01822
  0
VERTEX
  5
796
  8
Layer_0
  10
450.17419
  20
493.84082
  0
VERTEX
  5
797
  8
Layer_0
  10
450.15497
  20
493.65036
  0
VERTEX
  5
798
  8
Layer_0
  10
450.17419
  20
493.4599
  0
VERTEX
  5
799
  8
Layer_0
  10
450.22925
  20
493.2825
  0
VERTEX
  5
79a
  8
Layer_0
  10
450.31641
  20
493.12198
  0
VERTEX
  5
79b
  8
Layer_0
  10
450.43176
  20
492.98212
  0
VERTEX
  5
79c
  8
Layer_0
  10
450.57166
  20
492.86673
  0
VERTEX
  5
79d
  8
Layer_0
  10
450.73218
  20
492.7796
  0
VERTEX
  5
79e
  8
Layer_0
  10
450.90955
  20
492.72455
  0
VERTEX
  5
79f
  8
Layer_0
  10
451.09998
  20
492.70535
  0
SEQEND
  0
POLYLINE
  5
7a1
  8
Layer_0
  62
0
  66
1
  10
0
  20
0
  30
0
  0
VERTEX
  5
7a1
  8
Layer_0
  10
458.77997
  20
497.84537
  0
VERTEX
  5
7a2
  8
Layer_0
  10
467.41998
  20
497.84537
  0
SEQEND
  0
POLYLINE
  5
7a4
  8
Layer_0
  62
0
  66
1
  10
0
  20
0
  30
0
  0
VERTEX
  5
7a4
  8
Layer_0
  10
458.77997
  20
497.88345
  0
VERTEX
  5
7a5
  8
Layer_0
  10
458.75299
  20
497.87231
  0
VERTEX
  5
7a6
  8
Layer_0
  10
458.74188
  20
497.84537
  0
VERTEX
  5
7a7
  8
Layer_0
  10
458.75299
  20
497.81842
  0
VERTEX
  5
7a8
  8
Layer_0
  10
458.77997
  20
497.80725
  0
SEQEND
  0
POLYLINE
  5
7aa
  8
Layer_0
  62
0
  66
1
  10
0
  20
0
  30
0
  0
VERTEX
  5
7aa
  8
Layer_0
  10
458.77997
  20
497.84537
  0
VERTEX
  5
7ab
  8
Layer_0
  10
458.77997
  20
490.02536
  0
SEQEND
  0
POLYLINE
  5
7ad
  8
Layer_0
  62
0
  66
1
  10
0
  20
0
  30
0
  0
VERTEX
  5
7ad
  8
Layer_0
  10
458.81805
  20
497.84537
  0
VERTEX
  5
7ae
  8
Layer_0
  10
458.80695
  20
497.87231
  0
VERTEX
  5
7af
  8
Layer_0
  10
458.77997
  20
497.88345
  0
VERTEX
  5
7b0
  8
Layer_0
  10
458.75299
  20
497.87231
  0
VERTEX
  5
7b1
  8
Layer_0
  10
458.74188
  20
497.84537
  0
SEQEND
  0
POLYLINE
  5
7b3
  8
Layer_0
  62
0
  66
1
  10
0
  20
0
  30
0
  0
VERTEX
  5
7b3
  8
Layer_0
  10
458.77997
  20
490.02536
  0
VERTEX
  5
7b4
  8
Layer_0
  10
467.41998
  20
490.02536
  0
SEQEND
  0
POLYLINE
  5
7b6
  8
Layer_0
  62
0
  66
1
  10
0
  20
0
  30
0
  0
VERTEX
  5
7b6
  8
Layer_0
  10
467.41998
  20
490.02536
  0
VERTEX
  5
7b7
  8
Layer_0
  10
467.41998
  20
497.84537
  0
SEQEND
  0
POLYLINE
  5
7b9
  8
Layer_0
  62
0
  66
1
  10
0
  20
0
  30
0
  0
VERTEX
  5
7b9
  8
Layer_0
  10
467.45807
  20
497.84537
  0
VERTEX
  5
7ba
  8
Layer_0
  10
467.44696
  20
497.87231
  0
VERTEX
  5
7bb
  8
Layer_0
  10
467.41998
  20
497.88345
  0
VERTEX
  5
7bc
  8
Layer_0
  10
467.39301
  20
497.87231
  0
VERTEX
  5
7bd
  8
Layer_0
  10
467.3819
  20
497.84537
  0
SEQEND
  0
POLYLINE
  5
7bf
  8
Layer_0
  62
0
  66
1
  10
0
  20
0
  30
0
  0
VERTEX
  5
7bf
  8
Layer_0
  10
458.77997
  20
497.85034
  0
VERTEX
  5
7c0
  8
Layer_0
  10
459.85388
  20
497.67438
  0
VERTEX
  5
7c1
  8
Layer_0
  10
460.93298
  20
497.54871
  0
VERTEX
  5
7c2
  8
Layer_0
  10
462.01556
  20
497.4733
  0
VERTEX
  5
7c3
  8
Layer_0
  10
463.09998
  20
497.44815
  0
VERTEX
  5
7c4
  8
Layer_0
  10
464.18439
  20
497.4733
  0
VERTEX
  5
7c5
  8
Layer_0
  10
465.26697
  20
497.54871
  0
VERTEX
  5
7c6
  8
Layer_0
  10
466.34607
  20
497.67438
  0
VERTEX
  5
7c7
  8
Layer_0
  10
467.41998
  20
497.85034
  0
SEQEND
  0
POLYLINE
  5
7c9
  8
Layer_0
  62
0
  66
1
  10
0
  20
0
  30
0
  0
VERTEX
  5
7c9
  8
Layer_0
  10
467.427
  20
497.81296
  0
VERTEX
  5
7ca
  8
Layer_0
  10
467.45142
  20
497.82886
  0
VERTEX
  5
7cb
  8
Layer_0
  10
467.4574
  20
497.85736
  0
VERTEX
  5
7cc
  8
Layer_0
  10
467.44153
  20
497.88177
  0
VERTEX
  5
7cd
  8
Layer_0
  10
467.41296
  20
497.88776
  0
SEQEND
  0
ENDSEC
  0
EOF
